<svg width="24" height="24" viewBox="0 0 24 24" fill="none" xmlns="http://www.w3.org/2000/svg">
<path d="M20.0345 20.8736H3.9408C1.84094 20.8736 0.132812 19.1655 0.132812 17.0656V6.90565C0.132812 4.80605 1.8412 3.09766 3.9408 3.09766H20.0345C22.1341 3.09766 23.8422 4.80605 23.8422 6.90565V17.0656C23.8422 19.1655 22.1341 20.8736 20.0345 20.8736ZM3.9408 4.21121C2.45501 4.21121 1.24636 5.41986 1.24636 6.90565V17.0656C1.24636 18.5514 2.45501 19.7603 3.9408 19.7603H20.0345C21.5202 19.7603 22.7289 18.5514 22.7289 17.0656V6.90565C22.7289 5.41986 21.5202 4.21121 20.0345 4.21121H3.9408Z" fill="#8EB2CB"/>
<path d="M3.044 6.9593C5.89018 9.73277 8.73636 12.506 11.5825 15.2794C12.1131 15.7963 12.9274 14.9839 12.396 14.466C9.54985 11.6927 6.70367 8.91928 3.8575 6.14607C3.32693 5.62894 2.51265 6.44165 3.044 6.9593Z" fill="#8EB2CB"/>
<path d="M12.3926 15.2794C15.2388 12.5062 18.0849 9.73274 20.9311 6.95953C21.4622 6.44188 20.6484 5.62891 20.1176 6.14604C17.2714 8.91924 14.4253 11.6927 11.5791 14.4659C11.048 14.9836 11.8617 15.7965 12.3926 15.2794Z" fill="#8EB2CB"/>
<path d="M20.9024 17.2411C19.0086 15.4449 17.1144 13.6491 15.2206 11.853C14.6834 11.3437 13.8686 12.1557 14.4071 12.6665C16.3009 14.4626 18.1951 16.2584 20.0889 18.0546C20.6261 18.5638 21.4409 17.7516 20.9024 17.2411Z" fill="#8EB2CB"/>
<path d="M3.93926 18.0546C5.83311 16.2585 7.72723 14.4627 9.62108 12.6665C10.1593 12.156 9.345 11.3436 8.80759 11.853C6.91373 13.6492 5.01962 15.445 3.12577 17.2411C2.58756 17.7517 3.40185 18.5644 3.93926 18.0546Z" fill="#8EB2CB"/>
</svg>
