<svg width="24" height="25" viewBox="0 0 24 25" fill="none" xmlns="http://www.w3.org/2000/svg">
<path d="M0 5C0 4.17031 0.766071 3.5 1.71429 3.5H22.2857C23.2339 3.5 24 4.17031 24 5C24 5.82969 23.2339 6.5 22.2857 6.5H1.71429C0.766071 6.5 0 5.82969 0 5ZM0 12.5C0 11.6703 0.766071 11 1.71429 11H22.2857C23.2339 11 24 11.6703 24 12.5C24 13.3297 23.2339 14 22.2857 14H1.71429C0.766071 14 0 13.3297 0 12.5ZM24 20C24 20.8297 23.2339 21.5 22.2857 21.5H1.71429C0.766071 21.5 0 20.8297 0 20C0 19.1703 0.766071 18.5 1.71429 18.5H22.2857C23.2339 18.5 24 19.1703 24 20Z" fill="#36566D"/>
</svg>
