<svg width="20" height="20" viewBox="0 0 20 20" fill="none" xmlns="http://www.w3.org/2000/svg">
<path d="M9.96354 13.7623V11.5723" stroke="#36566D" stroke-width="1.5" stroke-linecap="round" stroke-linejoin="round"/>
<path d="M17.5735 9.56445L17.5494 9.58195C15.531 10.8253 12.866 11.5761 9.96271 11.5761C7.05937 11.5761 4.40187 10.8253 2.38437 9.58195L2.35938 9.56445" stroke="#36566D" stroke-width="1.5" stroke-linecap="round" stroke-linejoin="round"/>
<path fill-rule="evenodd" clip-rule="evenodd" d="M2.28906 11.1249C2.28906 5.99823 4.20823 4.28906 9.9649 4.28906C15.7224 4.28906 17.6407 5.99823 17.6407 11.1249C17.6407 16.2516 15.7224 17.9607 9.9649 17.9607C4.20823 17.9607 2.28906 16.2516 2.28906 11.1249Z" stroke="#36566D" stroke-width="1.5" stroke-linecap="round" stroke-linejoin="round"/>
<path d="M12.6875 4.47352V3.94852C12.6875 2.89518 11.9183 2.04102 10.9708 2.04102H8.96667C8.01917 2.04102 7.25 2.89518 7.25 3.94852V4.47352" stroke="#36566D" stroke-width="1.5" stroke-linecap="round" stroke-linejoin="round"/>
</svg>
