<svg width="24" height="24" viewBox="0 0 24 24" fill="none" xmlns="http://www.w3.org/2000/svg">
<path d="M17.1143 21H6.82857C6.07838 21 5.35893 20.702 4.82847 20.1715C4.29801 19.6411 4 18.9216 4 18.1714V5.82857C4 5.07838 4.29801 4.35893 4.82847 3.82847C5.35893 3.29801 6.07838 3 6.82857 3H14.5429C14.7473 3.00019 14.9435 3.08158 15.088 3.22629L19.7166 7.88571C19.8613 8.03025 19.9427 8.22633 19.9429 8.43086V18.1714C19.9429 18.9216 19.6449 19.6411 19.1143 20.1715C18.5839 20.702 17.8644 21 17.1143 21ZM6.82857 4.54286C6.48758 4.54286 6.16056 4.67832 5.91944 4.91944C5.67832 5.16056 5.54286 5.48758 5.54286 5.82857V18.1714C5.54286 18.5124 5.67832 18.8395 5.91944 19.0806C6.16056 19.3217 6.48758 19.4571 6.82857 19.4571H17.1143C17.4553 19.4571 17.7823 19.3217 18.0234 19.0806C18.2645 18.8395 18.4 18.5124 18.4 18.1714V8.71886L14.224 4.54286H6.82857Z" fill="#8EB2CB"/>
<path d="M16.5 19.75H15V13.5H8.5V19.75H7V13.25C7 12.9185 7.1317 12.6005 7.36612 12.3661C7.60054 12.1317 7.91848 12 8.25 12H15.25C15.5815 12 15.8995 12.1317 16.1339 12.3661C16.3683 12.6005 16.5 12.9185 16.5 13.25V19.75Z" fill="#8EB2CB"/>
<path d="M14.22 8.5H10.28C10.1106 8.49869 9.94314 8.46403 9.78713 8.39799C9.63112 8.33195 9.48965 8.23582 9.37079 8.11511C9.25193 7.99439 9.15801 7.85144 9.0944 7.69443C9.03078 7.53741 8.99872 7.36941 9.00004 7.2V3.75H10.5V7H14V3.75H15.5V7.2C15.5013 7.36941 15.4693 7.53741 15.4057 7.69443C15.342 7.85144 15.2481 7.99439 15.1293 8.11511C15.0104 8.23582 14.8689 8.33195 14.7129 8.39799C14.5569 8.46403 14.3894 8.49869 14.22 8.5Z" fill="#8EB2CB"/>
</svg>
