<svg width="20" height="20" viewBox="0 0 20 20" fill="none" xmlns="http://www.w3.org/2000/svg">
<rect width="20" height="20" fill="white"/>
<path fill-rule="evenodd" clip-rule="evenodd" d="M6.38906 1.66406H13.6141C16.4391 1.66406 18.3307 3.6474 18.3307 6.5974V13.4066C18.3307 16.3482 16.4391 18.3307 13.6141 18.3307H6.38906C3.56406 18.3307 1.66406 16.3482 1.66406 13.4066V6.5974C1.66406 3.6474 3.56406 1.66406 6.38906 1.66406ZM9.98906 7.54823C9.5974 7.54823 9.2724 7.2224 9.2724 6.82323C9.2724 6.4149 9.5974 6.0899 10.0057 6.0899C10.4057 6.0899 10.7307 6.4149 10.7307 6.82323C10.7307 7.2224 10.4057 7.54823 9.98906 7.54823ZM10.7224 13.1482C10.7224 13.5482 10.3974 13.8732 9.98906 13.8732C9.58906 13.8732 9.26406 13.5482 9.26406 13.1482V9.4649C9.26406 9.06406 9.58906 8.73156 9.98906 8.73156C10.3974 8.73156 10.7224 9.06406 10.7224 9.4649V13.1482Z" fill="#006CB7"/>
</svg>
