<?xml version="1.0" standalone="no"?>
<!DOCTYPE svg PUBLIC "-//W3C//DTD SVG 20010904//EN"
 "http://www.w3.org/TR/2001/REC-SVG-20010904/DTD/svg10.dtd">
<svg version="1.0" xmlns="http://www.w3.org/2000/svg"
 width="1024.000000pt" height="1024.000000pt" viewBox="0 0 1024.000000 1024.000000"
 preserveAspectRatio="xMidYMid meet">
<metadata>
Created by potrace 1.14, written by Peter Selinger 2001-2017
</metadata>
<g transform="translate(0.000000,1024.000000) scale(0.100000,-0.100000)"
fill="#000000" stroke="none">
<path d="M4920 9716 c0 -2 7 -7 16 -10 8 -3 12 -2 9 4 -6 10 -25 14 -25 6z"/>
<path d="M4912 9689 c2 -7 10 -15 17 -17 8 -3 12 1 9 9 -2 7 -10 15 -17 17 -8
3 -12 -1 -9 -9z"/>
<path d="M4890 9675 c0 -10 -3 -15 -7 -12 -9 9 -63 -43 -63 -60 0 -8 -5 -11
-10 -8 -10 6 -31 -34 -24 -46 2 -3 -7 -5 -21 -4 -17 2 -22 -1 -18 -11 3 -8 -1
-14 -11 -14 -9 0 -16 -4 -16 -10 0 -5 8 -7 18 -4 13 4 12 2 -3 -7 -11 -8 -23
-14 -27 -15 -5 -1 -11 -2 -15 -3 -5 -1 -1 -6 7 -11 12 -8 11 -10 -7 -10 -22 0
-27 -12 -26 -57 1 -18 -8 -16 -22 4 -11 15 -12 14 -10 -9 2 -17 -3 -29 -12
-32 -8 -4 -13 -12 -10 -19 3 -8 -4 -19 -15 -26 -14 -9 -17 -16 -9 -25 12 -15
-4 -36 -29 -36 -13 0 -13 -1 0 -10 13 -9 13 -12 -2 -20 -9 -6 -15 -17 -12 -24
3 -8 1 -17 -5 -21 -6 -3 -11 -17 -11 -31 0 -14 -4 -23 -9 -19 -6 3 -8 -4 -6
-15 2 -11 -1 -20 -6 -20 -6 0 -7 -6 -1 -16 7 -12 4 -22 -10 -36 -13 -13 -16
-26 -12 -43 4 -17 2 -25 -7 -25 -11 0 -11 -3 1 -10 12 -8 12 -10 1 -10 -10 0
-11 -3 -2 -14 10 -11 9 -16 -5 -24 -10 -6 -13 -12 -6 -16 13 -8 3 -46 -12 -46
-6 0 -4 -4 4 -10 8 -5 11 -12 7 -16 -4 -4 -2 -13 5 -21 8 -11 7 -12 -5 -7 -14
5 -16 -1 -12 -35 3 -28 1 -40 -6 -35 -8 4 -7 0 0 -14 9 -16 7 -24 -7 -38 -16
-17 -16 -18 1 -11 9 3 17 2 17 -3 0 -6 -6 -10 -12 -10 -8 0 -9 -3 -3 -8 14
-10 15 -42 1 -42 -6 0 -4 -5 4 -10 12 -8 12 -10 -5 -10 -15 0 -17 -2 -6 -9 7
-5 10 -14 7 -20 -4 -6 -2 -11 5 -11 7 0 4 -6 -7 -14 -18 -14 -18 -15 -1 -21 9
-4 17 -11 17 -17 0 -5 -6 -6 -12 -1 -7 4 -5 -6 6 -21 10 -16 13 -25 7 -22 -7
5 -10 -4 -9 -28 2 -20 6 -36 11 -36 4 0 7 -5 7 -11 0 -5 -4 -7 -10 -4 -6 3 -7
-1 -4 -9 3 -9 11 -16 18 -17 6 0 2 -4 -9 -9 -11 -5 -15 -9 -8 -9 6 -1 10 -14
9 -31 -2 -24 1 -29 13 -25 13 5 14 4 4 -6 -16 -16 -17 -43 -1 -33 6 4 8 3 4
-4 -3 -6 -2 -13 3 -17 7 -4 7 -15 1 -31 -13 -32 -12 -43 0 -24 8 13 10 13 10
-2 0 -9 -5 -20 -12 -24 -8 -5 -6 -11 6 -20 11 -7 15 -18 10 -25 -4 -8 -3 -10
4 -5 7 4 12 2 12 -3 0 -6 -4 -11 -10 -11 -5 0 -7 -7 -4 -15 4 -8 10 -12 15 -9
5 3 9 0 9 -5 0 -6 -4 -11 -10 -11 -5 0 -10 -5 -10 -11 0 -5 5 -7 12 -3 8 5 9
2 5 -9 -3 -10 -2 -17 2 -17 5 0 7 -10 4 -22 -4 -17 -2 -19 5 -9 8 11 10 8 9
-12 -1 -14 -5 -23 -9 -20 -16 9 -8 -10 10 -24 11 -10 12 -12 2 -8 -9 4 -8 1 3
-8 14 -11 15 -16 5 -20 -10 -4 -10 -6 0 -6 10 -1 10 -6 1 -22 -8 -15 -8 -19 0
-15 12 8 13 5 15 -38 1 -16 7 -31 14 -34 9 -3 8 -8 -5 -18 -17 -13 -17 -14 1
-7 13 4 17 3 12 -5 -4 -7 -2 -12 6 -12 9 0 9 -3 -2 -10 -8 -5 -10 -10 -5 -10
6 0 12 -10 12 -22 1 -13 7 -24 13 -26 5 -2 7 -8 4 -13 -3 -6 0 -16 6 -24 10
-12 10 -15 -1 -15 -8 0 -5 -6 7 -15 19 -15 19 -15 -1 -9 -18 6 -18 5 3 -15 26
-25 30 -40 5 -20 -15 13 -15 12 -3 -8 8 -12 18 -20 22 -17 4 3 5 -2 2 -10 -3
-9 -11 -13 -18 -9 -8 5 -8 3 1 -8 11 -14 13 -19 13 -38 0 -5 7 -17 16 -25 8
-9 11 -16 6 -16 -5 0 -9 -7 -9 -15 0 -8 4 -15 8 -15 4 0 9 -7 12 -14 4 -11 1
-13 -11 -10 -9 3 -6 -2 8 -10 16 -10 20 -16 10 -16 -10 -1 -9 -4 5 -10 11 -5
14 -9 7 -9 -10 -1 -10 -6 -1 -22 8 -15 8 -19 0 -15 -6 4 -11 2 -11 -3 0 -6 7
-11 15 -11 8 0 15 -5 15 -11 0 -5 -6 -7 -12 -3 -7 4 -4 -3 7 -16 11 -13 15
-20 8 -17 -6 4 -14 3 -18 -3 -3 -5 -1 -10 5 -10 6 0 8 -5 4 -12 -5 -9 -2 -9 9
1 10 8 17 9 17 3 0 -6 -5 -14 -10 -17 -6 -4 -5 -12 4 -21 11 -10 12 -22 6 -45
-7 -24 -6 -28 3 -20 9 7 13 5 13 -10 0 -10 -4 -19 -8 -19 -4 0 -8 -5 -8 -11 0
-5 4 -8 9 -4 5 3 12 1 16 -5 3 -5 0 -10 -7 -11 -7 0 -4 -4 7 -9 11 -5 15 -9 9
-9 -7 -1 -14 -8 -18 -16 -3 -8 0 -14 6 -12 6 1 13 -4 16 -12 2 -8 0 -11 -6 -7
-6 3 -9 -1 -8 -10 1 -8 9 -20 17 -25 11 -7 11 -9 1 -9 -7 0 -10 -5 -7 -10 4
-6 12 -7 18 -4 8 5 8 3 0 -7 -15 -16 -17 -33 -3 -24 6 3 10 2 10 -4 0 -5 -6
-12 -12 -14 -10 -4 -10 -6 0 -6 6 -1 12 -6 12 -12 0 -5 -6 -7 -12 -3 -7 4 -2
-5 12 -20 21 -23 22 -26 5 -20 -18 7 -18 6 -7 -9 8 -9 11 -21 7 -27 -3 -5 -1
-10 5 -10 8 0 8 -6 0 -19 -8 -16 -6 -22 7 -30 11 -6 13 -11 5 -11 -9 0 -10 -5
-2 -19 13 -25 13 -34 -1 -25 -8 4 -8 1 -1 -12 5 -11 7 -25 4 -33 -2 -7 2 -17
9 -22 12 -7 11 -9 -1 -9 -13 0 -13 -2 -1 -9 12 -8 12 -12 2 -25 -11 -14 -11
-16 5 -16 15 0 16 -2 5 -9 -8 -5 -11 -16 -8 -24 3 -8 1 -19 -5 -25 -6 -6 -6
-12 3 -17 8 -6 10 -4 4 5 -6 9 -4 11 4 5 9 -5 10 -10 2 -18 -6 -6 -11 -18 -11
-27 0 -13 1 -13 10 0 7 11 8 5 4 -20 -3 -19 -5 -41 -5 -47 3 -52 -1 -73 -13
-73 -5 0 -1 -7 10 -16 10 -8 13 -13 7 -9 -13 6 -15 0 -15 -30 0 -30 2 -36 14
-29 7 4 8 3 4 -5 -4 -6 -12 -8 -18 -5 -6 4 -8 -1 -3 -16 5 -17 4 -21 -5 -15
-9 6 -11 4 -4 -6 12 -20 14 -40 3 -33 -5 3 -6 10 -3 16 4 7 2 8 -4 4 -8 -5 -9
-13 -2 -25 6 -12 5 -22 -2 -29 -8 -8 -8 -15 2 -26 10 -13 9 -17 -4 -22 -9 -3
-13 -10 -10 -15 3 -6 0 -16 -6 -24 -10 -12 -10 -18 0 -30 11 -13 10 -14 -2
-10 -12 5 -15 0 -12 -20 1 -18 -2 -25 -10 -22 -9 4 -11 -3 -8 -20 4 -20 2 -24
-8 -18 -10 6 -12 4 -7 -9 5 -13 3 -17 -5 -13 -9 3 -13 -6 -14 -26 -1 -16 -9
-34 -18 -39 -9 -5 -14 -14 -10 -19 3 -5 0 -16 -6 -24 -6 -8 -9 -19 -5 -25 4
-6 1 -9 -7 -8 -7 2 -12 -3 -11 -9 2 -7 -2 -13 -8 -13 -6 0 -8 -7 -5 -16 5 -14
4 -15 -8 -5 -13 11 -15 9 -11 -9 5 -26 -38 -113 -50 -102 -5 4 -5 -1 -1 -12 5
-14 2 -17 -9 -12 -10 3 -13 2 -10 -4 10 -17 -15 -81 -28 -73 -7 4 -7 1 1 -9
11 -14 10 -18 -4 -26 -10 -6 -15 -16 -11 -25 6 -17 -15 -41 -26 -30 -4 3 -7 1
-7 -5 0 -7 5 -12 12 -12 6 0 3 -7 -8 -16 -10 -8 -14 -13 -9 -10 6 2 11 -5 12
-17 0 -12 -1 -16 -4 -9 -8 21 -21 13 -15 -10 3 -13 1 -19 -6 -15 -6 4 -9 0 -8
-10 2 -10 -2 -21 -7 -25 -13 -8 -17 -49 -5 -41 5 3 4 -4 -4 -16 -7 -12 -17
-21 -23 -21 -5 0 -4 -4 4 -9 13 -8 13 -12 0 -27 -12 -16 -12 -17 1 -10 8 4 6
0 -4 -8 -15 -12 -16 -16 -5 -16 12 0 12 -2 0 -9 -8 -5 -15 -19 -16 -30 -2 -23
10 -28 18 -8 4 9 6 9 6 -1 1 -7 -6 -15 -15 -19 -12 -4 -13 -7 -3 -14 11 -6 11
-17 3 -49 -8 -27 -8 -42 -1 -47 6 -4 7 -1 2 7 -5 8 -4 11 1 7 6 -3 9 -21 9
-39 -1 -18 4 -39 11 -45 7 -7 11 -24 9 -38 -1 -17 4 -29 17 -36 16 -9 17 -13
6 -27 -10 -12 -10 -14 0 -8 7 4 12 1 12 -9 0 -10 5 -13 13 -9 6 4 9 3 4 -1 -4
-5 1 -18 10 -29 10 -12 11 -15 3 -9 -28 25 -30 12 -3 -15 15 -16 31 -27 35
-25 4 2 10 -2 14 -8 4 -7 3 -9 -4 -5 -6 3 -13 2 -16 -3 -6 -9 22 -26 38 -22 5
1 3 -6 -5 -15 -9 -12 -9 -15 -1 -10 7 4 12 2 12 -4 0 -7 6 -10 14 -7 10 4 12
-1 9 -16 -4 -18 -3 -19 6 -7 10 13 11 13 12 0 1 -8 1 -19 0 -23 -1 -5 3 -6 8
-3 5 3 14 -1 21 -10 7 -8 20 -12 29 -9 11 3 9 0 -4 -11 -16 -14 -17 -16 -2
-11 24 9 47 -2 48 -22 0 -12 2 -12 9 4 8 19 9 19 9 1 1 -11 4 -17 7 -13 4 3
13 -1 21 -9 8 -8 19 -12 24 -9 5 4 9 0 9 -7 0 -9 3 -9 10 2 9 13 10 13 10 0 0
-9 8 -17 18 -18 9 -1 37 -3 61 -6 24 -2 47 -10 52 -17 7 -12 9 -11 9 1 0 9 3
11 8 5 8 -12 32 -13 49 -2 6 4 14 3 18 -3 4 -7 12 -7 26 0 12 7 19 7 19 1 0
-6 7 -8 15 -5 8 4 12 11 8 18 -3 6 3 3 14 -7 14 -12 23 -15 28 -7 3 5 12 7 18
3 9 -5 9 -3 0 8 -11 14 1 17 80 20 9 0 15 4 13 8 -7 10 71 54 83 47 5 -3 11 1
15 9 3 8 13 15 21 15 9 0 13 5 10 10 -5 9 16 15 38 11 5 -1 5 3 2 9 -8 14 26
41 40 32 5 -3 3 3 -5 13 -14 17 -14 18 10 5 24 -13 24 -12 10 5 -14 17 -13 18
4 12 17 -7 17 -6 5 10 -9 11 -10 14 -1 9 8 -5 12 -1 12 11 0 15 2 16 11 3 9
-12 10 -11 6 7 -4 17 -1 20 12 15 14 -5 14 -4 1 13 -12 15 -12 17 -1 10 11 -6
13 -4 7 10 -6 16 -4 16 11 4 10 -7 15 -10 11 -5 -4 5 -1 18 7 30 8 11 15 30
15 41 0 12 7 30 15 41 18 24 19 37 3 29 -7 -4 -4 1 6 9 11 9 16 16 11 16 -5 0
-1 6 10 13 14 11 15 16 5 22 -9 6 -11 4 -5 -5 6 -9 4 -11 -4 -6 -9 6 -8 13 5
27 13 15 14 19 3 19 -11 0 -11 2 1 10 13 9 13 10 0 10 -12 0 -13 2 -1 9 8 5
10 14 6 22 -6 8 -4 11 6 7 11 -4 15 1 15 17 0 13 -4 21 -9 18 -5 -3 -4 3 2 14
7 14 7 24 -2 33 -9 10 -9 11 1 6 8 -5 12 0 12 13 0 12 5 21 10 21 6 0 10 5 10
11 0 5 -4 8 -9 5 -10 -7 -8 9 4 37 4 9 5 28 3 42 -3 13 -2 22 2 20 5 -3 10 2
13 9 3 8 1 16 -4 18 -6 2 -7 11 -4 21 4 9 10 15 15 12 7 -5 3 90 -5 114 -5 12
-3 12 11 0 16 -13 16 -12 5 9 -9 16 -9 22 0 22 8 0 8 4 -1 15 -7 8 -8 15 -3
15 5 0 10 7 10 15 0 8 -5 15 -11 15 -8 0 -8 2 0 8 19 12 23 51 7 67 -14 14 -7
20 19 16 4 0 5 6 1 15 -5 13 -7 13 -14 2 -6 -9 -8 -7 -6 9 2 11 9 28 15 36 10
12 10 17 1 23 -7 4 -9 3 -6 -3 3 -5 0 -10 -8 -10 -11 0 -12 4 -4 13 6 7 7 19
3 25 -4 8 -3 9 4 5 7 -4 12 -3 12 3 0 5 -6 12 -12 14 -7 3 -8 6 -2 6 6 1 9 14
6 32 -4 25 -2 30 9 24 12 -7 12 -6 1 8 -15 18 -13 68 3 79 6 5 3 8 -6 8 -9 0
-16 7 -16 15 0 8 3 12 7 10 4 -2 7 9 6 24 -1 16 -5 26 -10 23 -5 -3 -7 2 -3
10 3 9 0 21 -6 28 -9 10 -8 12 4 7 13 -4 15 -1 12 14 -3 10 -8 17 -12 15 -8
-6 -6 48 3 63 4 5 2 12 -4 16 -6 4 -8 11 -4 16 3 5 0 16 -6 24 -10 12 -9 15 6
16 18 0 18 1 -1 9 -12 5 -14 9 -6 9 11 1 10 5 -3 20 -11 12 -14 21 -7 26 6 3
11 11 11 16 0 6 -4 8 -9 5 -11 -7 -9 13 3 33 7 10 6 12 -4 6 -10 -6 -12 -4 -7
7 3 9 -1 25 -9 37 -14 19 -13 20 3 14 15 -6 16 -4 6 9 -7 8 -10 18 -6 22 4 3
-2 13 -13 22 -10 8 -13 12 -5 8 11 -6 13 -3 6 12 -4 10 -9 42 -9 71 -1 37 -4
49 -12 42 -8 -6 -11 -2 -10 13 1 15 -4 22 -14 20 -10 -1 -9 2 4 13 11 8 15 15
9 15 -6 0 -13 7 -16 14 -4 11 -1 13 11 9 16 -5 16 -4 1 8 -23 20 -29 44 -16
59 7 7 7 10 2 7 -6 -3 -17 4 -25 16 -12 20 -12 21 3 8 22 -18 22 -7 0 14 -14
14 -14 18 -2 26 11 7 10 9 -6 9 -17 0 -17 2 -5 10 13 9 13 10 0 10 -13 0 -13
1 0 10 13 8 13 10 -1 10 -19 0 -32 47 -15 54 7 3 6 5 -2 5 -7 1 -10 6 -7 11 3
6 1 10 -4 10 -6 0 -11 10 -11 23 0 13 -5 28 -10 33 -6 6 -11 29 -13 51 -1 23
-6 39 -11 36 -4 -3 -5 5 -1 18 6 22 6 22 -7 6 -12 -16 -13 -13 -13 28 1 37 -2
44 -15 40 -12 -5 -12 -4 -3 6 10 10 9 17 -5 33 -9 11 -11 16 -4 12 6 -4 12 -2
12 3 0 6 -6 11 -12 11 -7 0 -14 10 -14 23 -1 12 -4 31 -7 42 -3 11 -6 23 -6
28 -1 4 -6 7 -12 7 -8 0 -7 -6 2 -17 13 -16 12 -17 -3 -5 -13 11 -15 19 -7 39
7 20 6 24 -4 20 -8 -3 -14 1 -14 9 0 7 4 11 9 8 4 -3 5 2 2 10 -3 9 -11 13
-18 9 -6 -4 -4 2 4 12 8 10 10 16 4 12 -7 -4 -18 1 -25 10 -12 15 -12 16 5 10
17 -7 17 -6 5 9 -8 10 -14 20 -14 23 0 3 -3 5 -7 4 -4 -2 -4 5 -1 14 4 11 3
14 -5 9 -7 -4 -12 -2 -12 3 0 6 5 11 12 11 6 0 2 8 -10 18 -15 13 -18 22 -12
30 6 7 7 10 4 7 -4 -2 -13 2 -20 10 -17 16 -19 29 -3 20 6 -4 5 2 -2 13 -7 12
-18 18 -24 15 -5 -3 -4 0 3 8 13 14 17 33 5 26 -5 -3 -14 1 -21 9 -9 10 -10
14 -1 14 7 0 3 8 -9 18 -16 14 -18 22 -10 30 9 9 9 12 -1 12 -7 0 -9 5 -6 10
3 6 -1 10 -11 10 -11 0 -15 6 -12 18 3 10 -1 27 -8 36 -7 10 -10 25 -7 34 5
15 4 15 -8 2 -8 -8 -13 -13 -11 -11 1 2 -5 12 -14 22 -10 11 -12 19 -5 24 6 3
11 11 11 16 0 6 -4 7 -10 4 -10 -6 -13 3 -13 38 0 10 -7 17 -20 17 -15 0 -17
3 -9 13 8 10 5 20 -13 42 -29 33 -32 43 -7 24 16 -13 16 -13 -1 7 -9 11 -15
23 -12 26 3 3 -1 11 -10 18 -12 10 -15 10 -15 0 0 -8 -3 -10 -6 -7 -4 4 -1 14
7 24 9 11 10 14 2 9 -7 -4 -13 -3 -13 3 0 5 6 12 13 14 6 3 1 6 -13 6 -20 1
-22 3 -10 11 13 8 13 10 -1 10 -11 0 -15 8 -13 26 2 21 0 23 -12 13 -8 -6 -17
-9 -21 -5 -3 3 -1 6 5 6 7 0 12 7 12 15 0 8 -4 15 -10 15 -5 0 -10 9 -10 21 0
11 -4 17 -10 14 -5 -3 -10 -2 -10 4 0 5 6 12 13 14 7 3 6 6 -5 6 -9 1 -20 6
-24 13 -5 7 -3 8 7 3 11 -7 12 -6 2 7 -7 8 -9 19 -5 23 4 5 -2 5 -13 1 -11 -4
-16 -4 -12 0 4 4 -1 17 -10 28 l-18 21 24 -20 24 -20 -11 21 c-6 12 -8 25 -4
29 4 5 2 5 -4 2 -6 -4 -20 1 -30 9 -12 10 -14 14 -4 11 10 -3 15 3 15 18 0 13
-2 23 -5 23 -19 -1 -30 3 -30 13 0 5 4 7 10 4 6 -3 7 1 4 9 -3 9 -9 14 -14 11
-4 -2 -6 7 -4 20 1 14 -3 28 -8 32 -7 4 -8 1 -3 -8 5 -8 4 -10 0 -6 -11 10
-16 39 -6 32 4 -2 8 3 8 11 0 9 -6 13 -14 9 -11 -3 -13 1 -8 15 5 15 2 20 -12
20 -15 0 -16 2 -3 10 8 5 11 10 5 10 -5 0 -3 5 5 10 13 8 13 10 -2 10 -11 0
-15 5 -12 15 3 8 -1 21 -10 30 -8 9 -13 22 -9 30 3 9 -1 23 -8 32 -8 9 -9 14
-2 10 12 -7 11 6 -2 36 -4 9 -5 24 -1 32 3 8 -2 21 -10 30 -9 8 -11 15 -5 15
6 0 11 5 11 11 0 5 -5 7 -10 4 -6 -4 -10 -3 -9 2 1 4 1 27 0 51 -1 31 -4 41
-13 36 -10 -6 -10 -4 0 7 13 14 17 53 4 45 -4 -2 -9 4 -9 15 -1 10 3 19 8 19
6 0 7 -5 3 -12 -5 -7 -3 -8 5 -4 9 6 8 13 -6 29 -10 11 -12 17 -5 13 6 -4 12
-2 12 3 0 6 -5 11 -11 11 -6 0 -7 5 -2 13 11 17 13 38 3 32 -5 -3 -8 4 -7 15
1 12 7 18 14 16 7 -3 10 1 6 10 -3 7 -8 14 -12 14 -9 0 -7 43 3 58 4 7 2 12
-6 12 -8 0 -6 5 5 11 14 8 16 14 6 25 -9 11 -9 14 1 14 10 0 10 3 1 14 -10 11
-8 17 6 25 14 8 15 10 3 11 -12 0 -12 2 -2 9 7 4 16 23 18 41 4 23 2 30 -6 25
-7 -4 -7 1 2 14 7 12 16 21 20 21 5 0 8 4 8 10 0 5 -8 7 -17 4 -16 -5 -16 -4
0 6 13 9 15 15 7 25 -8 9 -4 19 14 36 18 17 22 27 14 36 -8 10 -4 15 13 22 13
5 17 10 9 11 -13 0 -13 1 0 10 8 5 11 12 8 16 -11 10 12 45 24 38 7 -4 8 -3 4
5 -4 6 -13 11 -19 10 -26 -3 -38 2 -31 12 4 7 9 7 13 2 3 -5 15 -7 27 -4 20 6
20 6 2 25 -17 19 -18 19 -18 1z m-36 -50 c-4 -8 -11 -15 -16 -15 -6 0 -5 6 2
15 7 8 14 15 16 15 2 0 1 -7 -2 -15z m-349 -605 c3 -5 1 -10 -4 -10 -6 0 -11
5 -11 10 0 6 2 10 4 10 3 0 8 -4 11 -10z m642 -1182 c-3 -8 -6 -5 -6 6 -1 11
2 17 5 13 3 -3 4 -12 1 -19z m30 -2215 c8 -10 11 -12 7 -4 -5 10 -3 12 5 7 9
-6 9 -11 0 -22 -9 -11 -7 -14 15 -14 14 0 26 -4 26 -10 0 -5 -6 -8 -12 -6 -7
1 -10 1 -5 -1 4 -3 5 -9 2 -13 -3 -5 8 -2 25 6 16 9 30 18 30 20 0 3 -4 3 -9
0 -11 -7 -8 21 4 31 4 4 5 2 1 -4 -4 -8 -1 -13 8 -13 9 0 15 6 14 12 -4 20 39
21 46 2 5 -13 4 -14 -7 -6 -10 9 -13 6 -12 -11 0 -12 4 -28 8 -34 5 -8 4 -13
-2 -13 -6 0 -11 -5 -11 -11 0 -5 5 -7 10 -4 6 3 10 -1 10 -10 0 -12 5 -15 16
-11 8 3 25 1 37 -6 21 -10 21 -10 7 7 -14 17 -14 18 8 6 12 -6 28 -9 35 -6 6
4 4 0 -6 -8 -12 -10 -14 -16 -6 -19 7 -2 9 -10 5 -17 -6 -9 -11 -9 -24 1 -12
10 -14 10 -8 1 4 -8 2 -13 -4 -13 -6 0 -8 -5 -4 -12 5 -8 2 -9 -9 -5 -9 3 -19
1 -23 -5 -5 -7 -3 -8 5 -4 8 5 12 3 10 -5 -1 -8 -1 -21 0 -29 1 -13 2 -13 11
0 8 13 10 12 10 -3 0 -10 5 -15 10 -12 6 3 10 2 10 -4 0 -5 7 -17 15 -25 14
-14 13 -16 -9 -22 -13 -3 -40 -4 -58 -1 -20 2 -38 -1 -46 -9 -7 -8 -9 -14 -4
-14 10 0 3 -68 -9 -76 -5 -3 -9 0 -9 5 0 6 -3 10 -7 10 -20 -3 -34 2 -28 11 6
9 -8 14 -28 11 -5 -1 -6 3 -2 9 4 6 -4 9 -19 8 -18 -2 -22 -6 -15 -14 6 -8 4
-14 -6 -18 -11 -4 -14 -2 -9 7 4 6 -3 2 -15 -10 -27 -28 -27 -28 -34 -3 -3 12
-1 18 5 14 7 -4 7 0 1 12 -5 11 -8 29 -8 41 1 12 -4 24 -12 27 -8 3 -12 2 -9
-2 2 -4 -7 -7 -20 -7 -16 0 -23 4 -19 14 4 10 -2 9 -21 -4 -15 -9 -23 -12 -20
-6 4 6 2 11 -3 11 -6 0 -11 5 -11 11 0 5 5 7 10 4 6 -3 10 1 10 10 0 10 5 13
12 9 8 -5 9 -2 5 10 -4 10 -3 15 3 11 5 -3 15 5 22 20 9 20 9 28 -2 38 -10 9
-11 9 -6 0 4 -7 5 -13 2 -13 -3 0 -10 10 -17 21 -9 17 -8 20 3 14 11 -7 11 -5
0 6 -11 12 -14 12 -23 -1 -7 -11 -8 -7 -3 13 4 19 2 27 -7 27 -11 0 -11 2 1 9
17 12 33 4 24 -12 -5 -8 -3 -8 6 0 11 10 18 9 34 -5 12 -10 16 -12 11 -3 -6
11 -4 13 7 8 9 -3 24 1 35 9 10 9 12 12 4 8 -10 -5 -12 -3 -5 7 15 24 13 39
-4 39 -14 0 -15 2 -2 9 8 6 18 7 24 4 5 -3 6 -1 2 6 -4 6 -13 8 -19 4 -7 -4
-6 0 2 10 17 21 20 21 38 0z m-377 -227 c0 15 28 13 34 -2 3 -8 -3 -18 -12
-24 -16 -11 -16 -11 1 -6 9 3 17 1 17 -4 0 -6 -11 -10 -25 -10 -18 0 -23 -4
-19 -15 5 -11 2 -13 -11 -8 -15 5 -17 2 -13 -15 4 -13 0 -26 -10 -34 -10 -9
-13 -9 -9 -1 4 6 3 14 -2 18 -6 3 -8 -5 -5 -19 2 -13 -3 -37 -11 -52 -9 -18
-11 -32 -5 -38 6 -6 3 -17 -8 -30 -10 -11 -11 -16 -3 -11 10 6 12 4 5 -6 -12
-20 -14 -39 -3 -39 5 0 9 -5 9 -11 0 -5 -5 -7 -11 -3 -6 3 -3 -6 7 -22 11 -15
14 -25 7 -21 -7 5 -10 1 -8 -10 2 -10 4 -19 5 -20 2 -2 3 -8 4 -14 0 -6 9 -16
19 -23 9 -7 17 -21 17 -30 0 -11 5 -15 13 -10 9 5 9 4 0 -6 -17 -18 11 -52 35
-43 11 5 14 2 9 -9 -4 -11 2 -18 19 -22 14 -4 22 -11 19 -16 -3 -6 1 -10 9
-10 9 0 16 -4 16 -10 0 -5 7 -10 15 -10 7 0 19 -8 25 -17 10 -16 11 -16 6 2
-6 19 -5 19 8 2 10 -14 15 -15 19 -5 4 8 6 6 6 -5 1 -15 4 -16 24 -6 19 11 20
10 10 -2 -10 -13 -7 -15 20 -15 18 1 35 6 39 11 4 6 8 2 8 -7 0 -10 5 -18 11
-18 5 0 7 4 4 10 -4 6 6 8 24 6 17 -2 31 1 31 6 0 5 10 4 21 -3 13 -7 19 -7
15 -1 -3 6 -2 13 4 17 5 3 10 1 10 -5 0 -6 5 -8 10 -5 6 4 7 12 3 18 -4 8 -1
7 9 -1 14 -11 17 -10 23 8 3 11 11 18 16 14 5 -3 6 -11 2 -17 -3 -7 3 -4 14 6
11 9 24 14 28 10 5 -5 3 1 -5 11 -8 11 -10 17 -3 13 6 -4 14 -3 18 3 4 6 12 7
18 3 8 -5 8 -2 -1 9 -10 13 -9 15 13 13 14 -2 23 1 19 6 -3 5 -10 6 -16 3 -7
-5 -8 -2 -4 5 5 7 15 10 23 7 8 -3 11 -1 8 4 -3 6 1 13 10 16 9 4 14 13 11 20
-3 9 1 14 12 14 15 0 15 2 2 10 -13 8 -11 11 7 16 13 4 20 10 17 15 -3 5 -10
6 -16 3 -7 -4 -8 -2 -4 5 4 6 12 8 18 5 7 -5 9 -1 5 9 -4 10 -1 17 6 17 7 0 8
3 2 8 -13 9 -18 35 -5 27 5 -3 10 -1 10 5 0 6 4 9 8 6 5 -3 9 2 9 10 0 9 -6
13 -16 9 -10 -4 -7 2 6 14 23 22 38 28 28 11 -3 -5 2 -10 12 -10 17 -1 17 -1
0 -11 -14 -8 -16 -14 -6 -25 9 -11 8 -18 -2 -30 -12 -15 -11 -16 11 -10 l25 7
-25 -15 c-14 -9 -19 -15 -11 -16 11 0 11 -3 0 -17 -10 -11 -10 -14 -1 -9 6 4
12 3 12 -1 0 -5 -6 -15 -12 -22 -11 -11 -10 -12 2 -6 13 8 13 7 1 -8 -7 -9
-10 -17 -5 -17 4 0 -1 -7 -12 -16 -13 -11 -14 -14 -3 -11 9 3 16 -1 16 -8 0
-7 -6 -11 -12 -8 -8 2 -12 -5 -11 -19 1 -15 -4 -22 -13 -20 -12 3 -12 1 0 -14
9 -12 9 -15 2 -10 -8 4 -13 1 -13 -9 0 -10 -5 -13 -12 -9 -8 5 -7 0 2 -11 9
-11 10 -16 3 -11 -8 4 -13 1 -13 -9 0 -9 -4 -13 -10 -10 -14 9 -12 -8 3 -25 6
-8 3 -7 -9 3 -20 16 -21 16 -20 -5 1 -17 -4 -23 -20 -22 -14 0 -21 -5 -19 -15
4 -25 -5 -33 -21 -20 -12 10 -13 9 -8 -6 5 -13 4 -16 -4 -11 -7 4 -12 2 -12
-5 0 -7 -3 -10 -6 -6 -3 3 -16 -3 -27 -14 -12 -11 -26 -18 -32 -16 -5 2 -16
-3 -23 -12 -10 -12 -12 -13 -6 -1 7 13 5 13 -9 1 -9 -7 -17 -11 -17 -7 0 3
-11 1 -24 -4 -16 -6 -27 -5 -35 3 -9 9 -11 8 -6 -3 4 -13 -2 -16 -27 -16 -18
0 -46 -4 -63 -7 -19 -5 -25 -4 -17 1 10 7 7 11 -12 14 -15 3 -23 1 -19 -5 3
-5 0 -7 -8 -5 -8 3 -13 11 -11 17 1 7 -10 4 -25 -6 -27 -17 -28 -17 -13 2 9
11 10 16 3 11 -7 -4 -22 2 -35 14 -14 13 -25 17 -31 11 -12 -12 -50 6 -42 18
3 5 -2 11 -10 14 -10 4 -12 1 -9 -11 2 -9 -1 -7 -7 6 -7 12 -17 22 -24 22 -7
0 -20 11 -31 24 -10 14 -22 22 -27 19 -6 -4 -8 3 -4 16 5 19 3 20 -11 9 -12
-10 -14 -10 -8 0 4 7 2 12 -5 12 -7 0 -9 8 -6 21 5 17 3 18 -9 8 -12 -10 -15
-10 -12 2 2 8 -3 13 -10 11 -8 -1 -11 2 -7 8 3 6 11 8 16 5 5 -3 6 1 3 9 -3 9
-12 12 -22 8 -15 -5 -15 -4 -3 11 7 9 9 17 3 17 -5 0 -13 7 -16 16 -3 8 -2 12
4 9 6 -3 10 -1 10 4 0 6 -7 11 -16 11 -13 0 -14 3 -5 14 9 11 9 16 0 22 -8 5
-9 3 -4 -6 6 -9 4 -11 -5 -5 -10 6 -9 11 5 22 17 12 18 13 1 13 -9 0 -14 5
-11 10 4 6 2 17 -5 25 -8 9 -8 15 0 20 6 3 7 12 3 18 -10 16 -11 47 -2 42 4
-3 9 2 13 10 3 8 0 15 -6 15 -7 0 -3 7 8 16 10 8 14 13 8 10 -7 -3 -15 1 -18
10 -4 10 -2 13 6 8 8 -5 9 -2 5 9 -4 11 -1 17 8 17 8 0 15 5 15 11 0 5 -6 7
-12 3 -10 -6 -10 -5 -1 8 7 8 9 19 5 23 -4 5 -1 5 6 1 7 -4 12 -1 12 8 0 9 5
16 12 16 6 0 8 3 5 7 -4 3 1 12 11 20 9 8 11 12 5 8 -7 -3 -13 -1 -13 4 0 6 6
11 14 11 8 0 13 7 12 16 0 9 8 21 19 28 11 6 29 17 40 25 20 13 20 13 0 7 -15
-5 -17 -4 -9 4 6 6 20 12 32 13 11 0 18 5 16 9 -3 4 -2 13 2 19 4 8 9 7 15 -2
5 -8 9 -9 9 -3z m910 -116 c0 -5 -2 -10 -4 -10 -3 0 -8 5 -11 10 -3 6 -1 10 4
10 6 0 11 -4 11 -10z m-1225 -88 c-3 -3 -11 0 -18 7 -9 10 -8 11 6 5 10 -3 15
-9 12 -12z m265 -172 c0 -5 -2 -10 -4 -10 -3 0 -8 5 -11 10 -3 6 -1 10 4 10 6
0 11 -4 11 -10z m65 -112 c5 4 5 1 1 -6 -6 -10 -11 -10 -22 -1 -8 6 -14 14
-14 16 0 3 6 0 13 -6 8 -6 18 -7 22 -3z m55 -303 c11 -13 10 -14 -4 -9 -9 3
-16 10 -16 15 0 13 6 11 20 -6z"/>
<path d="M5086 5433 c-6 -14 -5 -15 5 -6 7 7 10 15 7 18 -3 3 -9 -2 -12 -12z"/>
<path d="M4686 5312 c-3 -5 1 -9 9 -9 8 0 12 4 9 9 -3 4 -7 8 -9 8 -2 0 -6 -4
-9 -8z"/>
<path d="M5355 4720 c-3 -5 -1 -10 4 -10 6 0 11 5 11 10 0 6 -2 10 -4 10 -3 0
-8 -4 -11 -10z"/>
<path d="M4839 9473 c-13 -16 -12 -17 4 -4 16 13 21 21 13 21 -2 0 -10 -8 -17
-17z"/>
<path d="M5427 9390 c-8 -11 -16 -18 -18 -15 -3 2 -5 -4 -5 -15 0 -10 5 -16
11 -12 5 3 4 -2 -4 -11 -7 -9 -17 -14 -22 -11 -5 3 -6 -1 -3 -9 3 -8 -2 -22
-11 -31 -9 -9 -14 -23 -11 -31 3 -8 1 -17 -5 -20 -5 -4 -6 -11 -3 -17 4 -7 2
-8 -5 -4 -9 6 -9 12 1 24 11 15 11 15 -3 4 -9 -7 -16 -22 -15 -35 1 -12 -5
-28 -14 -34 -13 -11 -13 -14 0 -23 13 -8 12 -10 -4 -10 -11 0 -16 -3 -13 -7 4
-3 -1 -12 -11 -20 -9 -8 -12 -12 -6 -9 7 3 14 -1 17 -9 4 -9 1 -12 -9 -8 -10
4 -12 0 -7 -13 4 -12 3 -15 -5 -10 -7 4 -12 2 -12 -3 0 -6 5 -11 11 -11 6 0 3
-7 -5 -16 -9 -8 -14 -20 -11 -25 4 -5 -1 -19 -9 -31 -12 -16 -13 -26 -4 -42
10 -20 10 -20 -7 -6 -17 14 -17 14 -7 -6 8 -16 7 -22 -6 -31 -14 -8 -17 -25
-17 -80 0 -59 -2 -70 -15 -65 -11 4 -9 -1 5 -18 11 -13 15 -20 8 -17 -14 9
-28 -9 -14 -17 10 -7 9 -25 -2 -43 -4 -6 -3 -14 2 -17 7 -5 8 -41 1 -41 -1 0
-3 -10 -4 -22 -2 -13 2 -23 8 -23 7 0 8 -3 1 -8 -9 -6 -12 -26 -5 -34 6 -8 5
-46 -1 -42 -4 2 -7 -5 -6 -16 1 -11 6 -20 12 -20 5 0 3 -5 -5 -10 -8 -5 -10
-10 -5 -10 6 0 11 -9 12 -20 1 -11 -1 -18 -5 -16 -4 3 -8 -4 -8 -14 0 -12 4
-16 11 -10 7 5 9 -8 8 -41 -1 -27 2 -47 7 -44 5 3 7 -8 5 -25 -2 -16 1 -32 6
-36 6 -4 6 -10 -1 -19 -8 -9 -6 -14 7 -19 15 -6 15 -8 3 -16 -12 -8 -12 -10
-1 -10 9 0 12 -8 9 -25 -3 -14 -1 -25 4 -25 5 0 7 -4 4 -9 -4 -5 0 -12 6 -14
7 -3 4 -6 -7 -7 -18 -1 -19 -1 -2 -11 11 -6 17 -22 17 -44 0 -18 5 -35 11 -37
6 -2 11 -21 11 -42 0 -28 3 -35 10 -25 7 11 9 9 5 -8 -3 -13 1 -24 10 -27 9
-4 13 -13 9 -21 -3 -9 1 -18 9 -21 11 -5 12 -11 5 -24 -13 -24 -13 -40 0 -20
7 11 10 11 10 2 0 -7 5 -10 11 -6 8 4 8 0 0 -15 -7 -11 -8 -21 -3 -21 6 0 18
-12 27 -27 16 -24 16 -25 1 -20 -13 5 -15 3 -7 -12 6 -10 7 -22 3 -26 -4 -5
-1 -5 6 -1 7 4 9 12 6 18 -4 7 -2 8 5 4 6 -4 9 -12 6 -17 -4 -5 0 -9 7 -9 9 0
9 -3 -2 -10 -13 -8 -12 -10 3 -10 9 0 17 -5 17 -11 0 -5 -6 -7 -12 -3 -9 5 -8
2 1 -9 8 -10 11 -20 7 -24 -3 -3 3 -12 13 -20 12 -8 18 -22 17 -38 -2 -13 1
-22 5 -19 5 3 9 -6 9 -20 0 -14 4 -26 10 -26 5 0 14 -10 20 -22 11 -22 10 -22
-4 -4 -9 11 -18 17 -21 15 -3 -3 4 -15 15 -27 12 -12 18 -22 14 -22 -4 0 0 -8
9 -18 13 -15 14 -21 4 -32 -7 -8 -8 -11 -1 -7 7 4 15 0 18 -9 9 -22 8 -26 -6
-18 -13 8 -7 -4 26 -50 11 -16 15 -26 8 -22 -7 4 -12 2 -12 -3 0 -6 8 -11 18
-11 14 0 15 -2 2 -10 -12 -8 -12 -10 5 -10 15 0 17 -3 7 -9 -11 -7 -11 -9 1
-14 10 -4 13 -13 10 -28 -4 -15 -3 -20 5 -15 7 4 12 3 12 -3 0 -5 -6 -12 -12
-14 -10 -4 -10 -6 0 -6 6 -1 12 -10 12 -22 0 -11 5 -17 10 -14 14 9 12 -8 -2
-24 -11 -11 -10 -12 1 -6 11 6 13 4 8 -8 -3 -10 -2 -17 4 -17 6 0 7 -4 4 -10
-3 -5 0 -10 7 -10 8 0 14 -9 14 -20 0 -11 -4 -20 -9 -20 -4 0 -5 -5 -2 -10 4
-6 11 -7 17 -4 6 4 6 -1 -1 -14 -8 -15 -8 -23 1 -28 7 -5 8 -3 3 7 -5 8 -4 11
0 6 13 -11 13 -47 1 -47 -6 0 -4 -4 4 -9 8 -6 18 -7 22 -5 4 3 5 -1 2 -9 -3
-8 -1 -18 5 -22 14 -8 14 -25 0 -25 -5 0 -7 5 -3 12 5 7 3 8 -6 3 -10 -6 -7
-14 14 -32 15 -12 22 -23 15 -23 -8 0 -8 -4 1 -15 9 -10 9 -19 2 -27 -7 -9 -6
-17 3 -25 7 -6 15 -10 17 -7 3 2 4 -12 3 -32 -1 -20 5 -42 12 -50 8 -8 10 -14
4 -14 -6 0 -8 -7 -5 -15 4 -8 9 -13 13 -11 4 3 7 -4 7 -14 0 -10 -3 -17 -7
-14 -4 2 -9 -3 -13 -11 -3 -8 0 -17 6 -21 7 -4 8 -3 4 4 -4 7 -2 12 4 12 8 0
10 -9 6 -26 -5 -19 -4 -24 6 -18 10 5 10 4 1 -6 -10 -11 -9 -16 5 -26 11 -9
13 -13 4 -14 -9 0 -10 -5 -2 -19 13 -26 13 -34 -2 -25 -7 4 -8 3 -4 -5 4 -6
11 -9 16 -6 4 3 11 -2 14 -11 3 -8 2 -12 -4 -9 -6 3 -10 1 -10 -4 0 -6 5 -11
10 -11 6 0 10 -4 10 -10 0 -5 -8 -6 -17 -3 -15 6 -16 5 -3 -9 8 -9 19 -14 23
-11 5 3 3 -4 -4 -15 -11 -17 -10 -24 2 -38 8 -10 9 -15 3 -11 -6 3 -11 0 -11
-8 0 -8 4 -12 9 -9 13 8 10 -10 -4 -24 -10 -10 -8 -14 10 -18 12 -4 19 -10 16
-15 -3 -5 -11 -6 -17 -3 -9 5 -9 4 0 -6 6 -7 9 -18 6 -25 -2 -7 4 -15 14 -18
16 -4 16 -5 -1 -6 -20 -1 -20 -1 0 -16 19 -15 19 -15 -1 -9 -16 6 -18 5 -7 -7
6 -7 12 -17 12 -22 0 -4 -6 -5 -12 -1 -7 4 -4 -3 7 -16 l20 -23 -20 6 c-20 7
-20 7 -1 -8 12 -9 15 -15 7 -15 -11 0 -11 -3 0 -17 8 -9 9 -14 3 -10 -9 5 -10
-2 -5 -26 8 -40 8 -48 -3 -66 -7 -10 -6 -12 4 -6 10 6 12 3 8 -13 -4 -12 -2
-25 3 -28 5 -3 4 -14 -2 -26 -8 -15 -8 -19 0 -14 6 4 11 4 11 1 0 -4 -5 -16
-11 -27 -8 -15 -8 -19 0 -14 14 9 14 0 1 -25 -8 -13 -7 -19 0 -19 7 0 7 -7 -1
-21 -8 -15 -8 -19 0 -15 14 9 14 0 0 -26 -8 -15 -8 -19 0 -14 6 4 11 3 11 -3
0 -5 -3 -12 -8 -15 -4 -2 -7 -36 -7 -75 1 -62 0 -69 -14 -58 -12 8 -11 6 2 -9
20 -24 22 -38 5 -28 -9 5 -9 2 1 -9 9 -12 10 -17 2 -17 -8 0 -9 -5 -2 -17 6
-12 5 -21 -7 -31 -10 -7 -12 -11 -6 -8 7 3 14 -3 17 -15 4 -15 2 -18 -7 -10
-10 8 -13 5 -12 -14 1 -13 5 -27 9 -31 3 -4 2 -15 -4 -26 -5 -10 -7 -23 -4
-28 3 -6 0 -10 -7 -10 -10 0 -10 -2 1 -9 11 -7 10 -11 -5 -20 -12 -6 -14 -11
-5 -11 9 0 10 -4 4 -12 -6 -7 -9 -26 -7 -43 3 -41 -5 -67 -19 -58 -7 4 -6 -1
2 -11 13 -15 13 -19 0 -27 -10 -6 -11 -9 -1 -9 7 0 10 -5 7 -10 -4 -6 -10 -8
-14 -6 -4 3 -5 -14 -1 -38 5 -33 3 -43 -6 -39 -13 5 -14 -14 -1 -34 6 -9 3
-11 -9 -6 -14 5 -15 3 -6 -12 8 -15 6 -22 -6 -33 -16 -12 -15 -13 2 -8 16 5
17 4 7 -8 -7 -8 -9 -21 -5 -28 6 -10 5 -10 -7 -1 -11 9 -14 7 -15 -13 -1 -15
2 -22 10 -17 6 3 2 -3 -8 -15 -12 -14 -14 -22 -7 -22 7 0 9 -5 6 -10 -4 -6
-11 -7 -17 -4 -7 4 -8 2 -4 -5 4 -6 2 -20 -5 -29 -11 -14 -11 -15 1 -5 11 10
16 9 27 -5 10 -12 12 -12 8 -2 -4 8 1 6 9 -4 9 -11 16 -16 16 -10 0 5 5 2 10
-6 6 -9 10 -11 10 -3 0 7 7 10 17 6 11 -4 14 -3 9 6 -11 16 33 -8 52 -29 12
-13 13 -12 8 5 -5 18 -5 18 7 3 12 -15 14 -15 25 0 7 9 10 11 7 5 -4 -8 0 -13
9 -13 9 0 16 -6 16 -12 0 -9 4 -8 10 2 5 8 10 10 10 5 0 -6 9 -16 21 -23 12
-8 18 -9 15 -4 -3 5 6 9 19 10 16 0 25 -6 25 -17 0 -14 2 -14 10 -1 6 10 10
11 10 3 0 -7 5 -13 11 -13 5 0 7 4 4 10 -3 6 1 7 9 4 9 -3 16 -11 16 -17 0 -7
4 -7 12 1 17 17 28 15 28 -4 0 -13 3 -14 15 -4 12 10 16 9 21 -4 4 -11 14 -15
28 -11 11 2 15 2 8 -1 -6 -3 -9 -11 -6 -16 5 -7 2 -8 -7 -3 -11 7 -12 6 -2 -7
7 -8 10 -18 6 -21 -3 -4 -1 -7 7 -7 10 0 10 -4 -1 -17 -12 -14 -12 -16 0 -8
11 6 13 2 9 -19 -4 -19 -1 -26 10 -26 11 0 12 -3 3 -13 -8 -10 -7 -17 1 -25
18 -18 17 -64 -1 -57 -12 5 -11 2 2 -13 12 -13 14 -21 6 -29 -8 -8 -7 -13 2
-18 8 -6 10 -4 4 5 -5 9 -4 11 4 6 9 -6 9 -11 0 -22 -9 -11 -8 -14 2 -14 8 0
6 -5 -6 -14 -18 -13 -18 -13 1 -24 13 -8 14 -11 5 -12 -8 0 -11 -3 -8 -7 4 -3
2 -12 -4 -19 -7 -8 -6 -14 2 -20 8 -5 9 -3 4 6 -6 9 -4 11 5 5 10 -6 9 -11 -5
-22 -11 -7 -14 -13 -9 -13 5 0 10 -9 11 -20 1 -11 -2 -18 -7 -15 -5 3 -11 1
-14 -4 -4 -5 -2 -12 4 -16 5 -3 10 -13 10 -21 0 -9 -5 -12 -12 -8 -7 5 -8 3
-3 -6 6 -10 11 -9 21 4 7 10 15 17 18 17 17 -2 19 0 8 11 -7 7 -12 19 -12 28
1 12 3 12 11 -3 14 -23 28 -13 25 18 -2 13 1 22 5 19 5 -2 17 4 29 16 19 19
18 25 -4 21 -5 -1 -4 5 3 13 7 8 20 12 28 9 10 -4 14 -2 9 5 -3 6 -2 13 4 17
6 4 8 11 4 16 -3 5 0 8 7 7 6 -2 14 3 17 11 3 9 0 11 -9 6 -8 -5 -11 -4 -6 1
5 5 13 10 18 10 5 1 12 2 15 3 4 0 1 7 -5 15 -9 11 -9 16 0 22 8 4 9 3 5 -4
-4 -7 -2 -12 3 -12 6 0 11 9 11 20 0 11 5 20 10 20 6 0 10 7 10 16 0 8 4 13 9
10 4 -3 7 6 5 20 -2 18 2 24 11 20 14 -5 29 20 20 34 -3 4 2 11 11 14 12 5 14
10 5 20 -13 16 -2 30 13 16 8 -6 12 -3 12 11 0 10 -5 19 -11 19 -5 0 -2 7 7
14 10 7 15 16 11 19 -3 4 -1 7 6 7 7 0 9 5 6 10 -3 6 -1 10 6 10 8 0 7 5 -2
17 -12 14 -12 15 0 9 18 -11 33 14 19 31 -8 10 -6 13 8 14 11 0 14 3 7 6 -7 2
-13 9 -13 15 0 6 7 7 16 4 8 -3 13 -2 10 2 -3 5 1 21 9 36 8 16 10 24 3 20 -8
-5 -9 -1 -5 10 4 10 7 20 7 22 0 3 5 2 12 -2 6 -4 8 -3 4 4 -3 6 -2 13 3 16 5
4 8 14 6 24 -1 9 3 23 9 31 7 10 7 13 0 8 -8 -4 -8 3 0 28 6 18 14 31 18 28
12 -7 5 21 -7 29 -6 5 -5 8 3 8 7 0 10 5 7 10 -3 6 -2 10 4 10 6 0 7 7 4 17
-5 12 -3 14 8 8 11 -6 11 -5 2 5 -14 15 -6 42 11 33 6 -3 6 -1 -1 8 -7 7 -13
17 -13 22 0 4 6 5 13 1 8 -5 8 -2 -2 9 -8 10 -9 17 -3 17 6 0 9 9 7 20 -2 11
0 18 6 15 5 -4 9 0 9 9 0 8 -6 17 -12 19 -7 3 -4 6 7 6 17 1 17 3 5 11 -8 5
-10 10 -5 10 6 0 10 12 9 28 -1 15 6 35 14 45 13 15 13 17 1 12 -10 -4 -15 1
-15 14 0 13 4 17 11 11 7 -6 11 -2 11 10 0 10 -4 17 -7 14 -4 -2 -10 0 -14 6
-3 5 0 10 7 10 8 0 13 14 14 38 0 20 4 48 7 60 5 19 3 23 -9 18 -10 -4 -13 -2
-7 7 4 6 8 15 9 20 1 4 2 8 4 10 7 8 4 57 -3 57 -5 0 -4 6 2 13 6 8 8 17 4 21
-11 11 -10 46 1 46 7 0 7 3 1 8 -5 4 -11 18 -13 32 -1 14 -3 37 -5 52 -2 15 1
24 5 22 5 -3 6 9 3 28 -4 18 -7 45 -7 60 -1 17 -5 25 -12 21 -6 -4 -5 1 3 10
7 9 9 17 4 17 -11 0 -11 36 0 46 4 4 -1 13 -11 20 -14 11 -14 13 -2 14 12 1
12 3 -3 14 -15 12 -16 14 -2 20 17 6 21 26 4 26 -5 0 -7 -6 -3 -12 4 -7 3 -9
-1 -5 -14 12 -15 37 -2 37 9 0 9 2 1 8 -16 10 -23 60 -10 66 7 3 6 5 -2 5 -7
1 -10 6 -7 11 3 6 -2 10 -12 11 -10 0 -13 3 -6 5 13 6 6 35 -11 46 -8 5 -7 8
1 8 6 0 11 9 10 19 -1 16 -4 18 -16 8 -12 -10 -13 -9 -7 1 4 7 3 19 -4 27 -7
8 -7 15 -1 19 14 9 6 42 -10 38 -10 -3 -10 0 1 12 9 12 9 16 1 16 -7 0 -9 5
-6 10 3 6 0 10 -7 10 -9 0 -9 3 2 10 11 7 11 10 2 10 -7 0 -12 8 -11 18 4 25
-11 63 -22 57 -5 -4 -4 6 1 21 9 23 8 25 -4 15 -11 -9 -14 -8 -12 6 0 10 -5
17 -12 15 -8 -1 -11 2 -7 8 3 6 10 8 15 5 4 -3 6 4 3 15 -3 11 -10 20 -15 20
-6 0 -8 9 -5 20 3 13 0 20 -9 20 -17 0 -19 20 -1 20 6 0 4 5 -6 11 -12 7 -16
17 -11 31 4 14 2 18 -5 14 -7 -5 -11 1 -11 14 0 14 -4 19 -12 14 -8 -5 -7 0 2
11 9 11 10 16 3 11 -9 -5 -13 0 -13 13 0 12 -4 21 -9 21 -6 0 -8 9 -6 20 2 11
-3 26 -11 34 -8 8 -14 23 -14 33 0 11 -9 29 -20 41 -23 24 -26 36 -7 27 6 -4
2 2 -10 13 -17 15 -19 22 -10 32 9 10 9 11 0 6 -7 -4 -13 -2 -13 4 0 6 -5 8
-12 4 -8 -5 -7 0 2 11 11 14 12 17 1 11 -9 -6 -12 -5 -9 5 3 8 -2 20 -11 26
-14 11 -14 14 -1 23 12 8 10 10 -9 10 -18 0 -22 4 -18 19 3 13 -1 21 -13 24
-13 3 -16 11 -13 31 3 16 1 26 -6 26 -7 0 -9 -5 -5 -12 4 -7 3 -8 -4 -4 -6 4
-9 13 -5 21 3 8 0 15 -6 15 -6 0 -11 5 -11 11 0 5 5 7 12 3 7 -4 8 -3 4 5 -4
6 -12 8 -18 5 -7 -5 -9 -1 -5 9 3 9 1 19 -5 23 -7 4 -8 3 -4 -4 4 -7 2 -12 -4
-12 -7 0 -9 8 -5 20 4 12 2 20 -5 20 -7 0 -10 7 -7 15 4 8 1 17 -5 21 -7 5 -8
2 -3 -6 5 -9 4 -11 -4 -6 -9 6 -9 11 0 22 7 9 8 14 3 13 -21 -4 -35 2 -29 11
3 6 -2 10 -11 10 -10 0 -14 3 -11 7 4 3 -1 16 -10 27 -17 20 -17 20 0 7 15
-12 17 -12 11 2 -3 8 -12 18 -20 21 -9 3 -12 11 -8 18 5 7 2 9 -8 5 -12 -4
-14 -1 -11 14 3 11 0 19 -6 19 -7 0 -9 -5 -5 -12 4 -7 3 -8 -5 -4 -9 6 -9 11
0 22 9 11 8 14 -7 14 -16 0 -17 2 -4 10 11 7 11 10 2 10 -8 0 -10 5 -6 13 6 9
5 9 -8 0 -19 -16 -30 -6 -18 16 6 13 1 25 -20 48 -16 17 -27 32 -25 34 1 2 -3
10 -11 17 -10 10 -14 10 -14 1 0 -7 -3 -9 -6 -6 -4 4 -1 13 6 22 10 12 10 15
-2 15 -8 0 -24 11 -36 25 l-22 25 27 -5 c26 -5 27 -5 5 5 -15 6 -21 14 -16 22
6 10 5 10 -7 1 -13 -10 -16 -10 -17 2 -1 8 -3 22 -4 30 -1 14 -12 19 -32 16
-5 -1 -3 6 5 15 9 12 9 15 2 10 -8 -4 -13 -2 -13 4 0 6 -5 8 -12 4 -9 -5 -9
-2 1 9 9 12 10 17 2 17 -7 0 -9 5 -6 10 6 9 -7 14 -27 11 -4 0 -4 7 -1 16 4
11 3 14 -5 9 -15 -9 -16 6 -1 21 7 7 6 12 -6 17 -9 3 -13 2 -10 -4 3 -6 4 -10
1 -10 -3 0 -10 10 -17 21 -8 16 -8 20 1 14 8 -5 7 0 -2 14 -16 25 -30 28 -22
4 5 -15 4 -15 -4 -3 -8 10 -8 18 0 27 8 10 6 13 -5 13 -10 0 -14 6 -11 14 3 9
-3 20 -15 28 -12 7 -21 16 -21 21 0 4 5 5 12 1 7 -4 8 -3 4 4 -4 7 -14 12 -22
12 -8 0 -14 9 -14 20 0 11 -5 20 -11 20 -5 0 -7 5 -3 12 4 6 -1 17 -11 24 -10
8 -15 20 -11 29 4 12 2 14 -13 6 -16 -9 -18 -7 -15 20 3 21 0 28 -8 23 -8 -5
-9 -2 -5 9 4 12 1 17 -10 17 -13 0 -14 2 -2 17 8 9 10 14 4 11 -5 -3 -19 6
-29 20 -11 14 -14 22 -8 18 7 -4 12 -2 12 3 0 10 -14 15 -32 12 -4 0 -5 6 -1
15 3 8 -3 22 -13 30 -13 11 -15 17 -7 20 10 4 10 8 0 19 -7 8 -16 10 -23 4
-12 -10 -13 19 -1 38 4 6 -1 17 -11 24 -16 13 -16 13 -2 -6 14 -19 14 -19 -3
-6 -14 11 -15 16 -5 29 10 13 10 14 1 8 -9 -5 -13 1 -13 19 0 15 -4 24 -10 20
-14 -9 -12 8 3 24 10 11 10 13 0 7 -7 -4 -13 -2 -13 4 0 6 -5 8 -11 4 -8 -5
-8 -1 0 13 6 11 7 24 3 28 -4 3 -7 10 -8 13 -2 20 -17 41 -25 36 -5 -3 -9 0
-9 5 0 6 4 11 8 11 4 0 8 9 8 20 0 11 -7 20 -14 20 -12 0 -12 3 -1 17 8 9 9
14 3 10 -7 -4 -14 0 -17 7 -3 8 -1 17 6 20 8 3 8 5 -2 5 -10 1 -11 4 -2 15 9
11 9 16 0 22 -8 5 -10 3 -4 -7 5 -8 4 -10 0 -6 -11 9 -16 39 -6 33 4 -3 7 4 7
15 0 10 -4 19 -8 19 -4 0 -8 5 -8 11 0 5 5 7 10 4 6 -3 10 -1 10 4 0 6 -4 11
-10 11 -5 0 -10 7 -10 16 0 9 5 12 13 8 6 -4 3 3 -8 16 -19 22 -19 23 -1 16
16 -5 17 -4 6 9 -7 8 -9 15 -4 15 5 0 2 5 -6 10 -11 7 -11 10 -2 10 10 0 10 5
1 21 -8 17 -8 20 1 14 9 -5 10 -1 5 15 -4 13 -3 20 2 17 5 -4 10 0 10 8 0 8
-4 12 -9 9 -11 -7 -10 3 2 26 8 15 6 22 -7 30 -15 10 -15 11 -2 6 14 -4 16 3
15 40 -1 24 3 46 9 48 5 2 1 5 -10 6 -18 1 -18 2 4 11 19 8 21 12 11 24 -11
13 -10 18 6 30 18 15 18 15 -1 8 -20 -6 -20 -6 -1 16 16 17 16 20 4 16 -9 -4
-19 -1 -23 5 -3 6 -3 10 2 9 20 -4 29 2 29 21 0 25 -11 25 -29 0z m-191 -515
c-1 -8 -5 -17 -8 -21 -5 -4 -4 16 1 34 3 9 9 -1 7 -13z m239 -254 c3 -5 2 -12
-3 -15 -5 -3 -9 1 -9 9 0 17 3 19 12 6z m605 -1076 c7 -9 8 -15 2 -15 -5 0
-12 7 -16 15 -3 8 -4 15 -2 15 2 0 9 -7 16 -15z m-513 -262 c0 -9 -4 -10 -14
-2 -7 6 -13 12 -13 14 0 1 6 2 13 2 8 0 14 -6 14 -14z m884 -420 c13 -16 12
-17 -3 -4 -10 7 -18 15 -18 17 0 8 8 3 21 -13z m173 -449 c3 -8 2 -12 -4 -9
-6 3 -10 10 -10 16 0 14 7 11 14 -7z m136 -988 c0 -3 -4 -8 -10 -11 -5 -3 -10
-1 -10 4 0 6 5 11 10 11 6 0 10 -2 10 -4z m-110 -622 c0 -8 -19 -13 -24 -6 -3
5 1 9 9 9 8 0 15 -2 15 -3z"/>
<path d="M4269 9119 c-7 -4 -5 -8 4 -12 8 -3 23 0 32 7 15 11 14 12 -5 12 -11
0 -25 -3 -31 -7z"/>
<path d="M4252 9088 c-6 -6 -8 -18 -5 -27 4 -11 1 -10 -11 4 -9 11 -15 15 -14
9 2 -5 -9 -22 -24 -36 -15 -14 -25 -28 -21 -31 3 -4 -1 -7 -11 -7 -11 0 -14
-4 -10 -12 5 -8 2 -9 -10 -5 -14 5 -17 3 -12 -8 3 -8 2 -14 -2 -14 -19 3 -23
-2 -13 -15 10 -12 8 -14 -12 -12 -24 3 -29 -7 -15 -29 4 -6 -2 -12 -13 -12
-12 -1 -17 2 -13 10 4 7 3 8 -2 4 -5 -5 -9 -14 -9 -20 -1 -7 -5 -11 -11 -10
-5 1 -10 -7 -10 -17 0 -10 5 -16 11 -13 5 3 4 0 -3 -8 -11 -12 -14 -12 -22 1
-5 8 -10 10 -10 5 0 -6 6 -17 13 -24 10 -11 10 -13 0 -7 -8 4 -13 1 -13 -8 0
-8 -5 -18 -12 -22 -7 -5 -8 -3 -3 6 5 8 4 11 -3 7 -5 -4 -8 -17 -4 -30 5 -20
4 -21 -13 -7 -17 14 -18 14 -7 -7 9 -16 9 -24 0 -29 -7 -4 -8 -3 -4 4 4 7 5
12 2 12 -8 0 -36 -62 -31 -70 3 -4 -2 -11 -11 -14 -11 -4 -14 -14 -11 -27 4
-16 3 -18 -8 -9 -11 9 -12 7 -8 -11 5 -17 3 -20 -8 -15 -8 4 -6 1 4 -7 17 -14
16 -15 -4 -20 -13 -3 -20 -12 -18 -24 4 -25 -11 -64 -21 -58 -5 3 -12 0 -16
-6 -4 -7 -3 -9 4 -5 6 3 13 2 17 -4 3 -5 1 -10 -5 -10 -6 0 -8 -4 -5 -10 3 -5
0 -10 -7 -10 -9 0 -9 -3 2 -10 12 -7 12 -10 1 -10 -7 0 -11 -6 -7 -15 3 -9 0
-15 -10 -15 -8 0 -12 -5 -9 -10 4 -6 12 -8 18 -4 7 3 3 -2 -7 -10 -15 -12 -16
-16 -5 -16 10 -1 9 -4 -4 -11 -14 -8 -16 -14 -6 -25 9 -11 8 -14 -7 -14 -16 0
-17 -2 -4 -10 13 -9 13 -11 0 -20 -13 -9 -13 -10 0 -10 13 0 13 -2 1 -9 -8 -5
-11 -16 -8 -25 4 -9 1 -16 -6 -16 -8 0 -6 -4 3 -10 13 -8 12 -10 -3 -10 -10 0
-15 -5 -12 -10 4 -6 11 -8 16 -4 6 3 3 -10 -5 -30 -8 -20 -11 -36 -5 -36 5 0
9 -5 9 -11 0 -5 -4 -7 -10 -4 -18 11 -11 -14 8 -25 16 -11 16 -11 -2 -6 -13 5
-17 2 -13 -8 3 -7 0 -19 -6 -25 -9 -9 -8 -11 7 -5 16 6 17 4 8 -13 -8 -15 -8
-23 1 -33 9 -10 9 -11 -2 -5 -11 6 -13 0 -9 -29 2 -20 1 -36 -2 -36 -4 0 -4
-20 0 -44 4 -24 5 -54 3 -66 -2 -15 1 -19 9 -14 7 4 10 4 6 -1 -4 -4 -2 -15 5
-24 10 -14 10 -14 -4 -3 -15 11 -16 7 -15 -35 0 -27 5 -51 11 -55 6 -5 5 -12
-4 -20 -11 -11 -13 -11 -6 1 5 10 4 12 -4 7 -15 -10 -5 -26 17 -27 11 0 12 -2
4 -6 -6 -2 -9 -10 -5 -16 13 -20 12 -39 -1 -34 -7 3 -13 -1 -13 -9 0 -7 4 -11
8 -8 4 2 10 0 14 -6 3 -5 0 -10 -7 -10 -10 0 -10 -2 1 -9 7 -5 10 -14 7 -20
-4 -6 -1 -11 6 -11 9 0 9 -3 -2 -10 -10 -7 -11 -12 -4 -17 14 -11 26 -43 15
-43 -5 0 -12 6 -14 13 -4 7 -6 8 -6 1 -1 -6 6 -17 14 -24 20 -17 19 -31 -2
-23 -13 4 -11 -1 6 -15 13 -12 20 -22 14 -22 -5 0 -10 -7 -10 -15 0 -12 3 -12
16 -2 12 10 13 9 6 -3 -12 -19 -7 -70 8 -89 10 -12 9 -13 -3 -6 -12 6 -13 5
-2 -6 6 -7 12 -26 12 -42 0 -15 3 -26 8 -24 4 3 8 -11 10 -31 1 -20 8 -40 15
-44 8 -5 6 -8 -8 -9 -11 0 -14 -3 -7 -6 6 -2 10 -9 7 -14 -4 -5 0 -6 7 -4 15
6 18 -31 5 -52 -4 -7 -2 -15 4 -19 8 -4 9 -3 5 4 -4 7 -3 12 2 12 5 0 12 -11
14 -24 4 -19 1 -23 -11 -19 -13 4 -13 2 1 -10 14 -11 15 -16 5 -26 -9 -10 -8
-11 8 -5 18 7 19 6 5 -11 -9 -11 -10 -16 -2 -11 6 4 12 3 12 -1 0 -5 -6 -15
-12 -22 -11 -11 -10 -13 3 -8 12 4 16 -1 15 -21 -1 -15 2 -34 5 -43 4 -8 4
-21 -1 -29 -5 -8 -6 -19 -2 -25 13 -20 13 -47 0 -39 -10 6 -10 5 -2 -7 16 -19
16 -100 1 -118 -10 -12 -9 -14 7 -8 16 6 17 5 6 -8 -7 -8 -10 -21 -7 -29 3 -7
0 -19 -6 -26 -9 -10 -9 -11 3 -5 13 8 13 6 1 -8 -7 -9 -10 -24 -7 -33 4 -10
-1 -26 -11 -37 -10 -11 -13 -17 -7 -14 8 5 11 -2 10 -17 -1 -20 -4 -22 -15
-13 -12 10 -12 9 -2 -10 10 -20 9 -23 -6 -23 -15 0 -15 -2 3 -15 10 -9 13 -14
5 -13 -7 2 -16 -3 -19 -11 -3 -10 0 -11 9 -5 12 7 12 5 0 -9 -7 -9 -10 -24 -7
-33 5 -14 4 -15 -8 -5 -12 10 -14 6 -12 -23 1 -19 -1 -34 -4 -34 -18 1 -21 -4
-10 -17 11 -13 10 -14 -2 -10 -12 5 -15 0 -13 -19 2 -14 -2 -29 -7 -33 -6 -3
-8 -1 -4 5 3 6 2 13 -3 17 -10 6 -7 -27 4 -45 8 -13 -18 -8 -27 5 -4 5 -6 0
-5 -12 0 -12 6 -19 11 -16 5 4 -3 -10 -18 -30 -16 -21 -25 -41 -20 -48 5 -9 0
-10 -17 -6 -23 6 -23 5 -5 -8 18 -14 19 -15 2 -15 -13 0 -17 -5 -13 -19 3 -15
1 -18 -11 -14 -10 4 -13 2 -8 -5 4 -7 1 -15 -8 -18 -8 -3 -13 -11 -10 -19 3
-7 -7 -25 -21 -41 -15 -16 -23 -23 -19 -15 5 10 3 12 -5 7 -9 -6 -9 -11 0 -22
10 -12 8 -16 -9 -21 -12 -3 -20 -9 -17 -13 3 -4 -2 -11 -11 -14 -9 -3 -14 -12
-11 -19 3 -8 -4 -19 -15 -26 -17 -10 -18 -15 -6 -28 11 -14 11 -15 -1 -8 -11
6 -13 4 -8 -9 5 -11 3 -15 -5 -10 -8 5 -9 2 -5 -10 6 -14 3 -17 -9 -12 -14 5
-15 4 -4 -9 7 -8 17 -12 24 -9 6 3 4 0 -5 -8 -16 -14 -35 -53 -20 -44 4 3 8
-8 9 -25 0 -19 -3 -27 -10 -23 -7 4 -8 2 -4 -5 6 -9 12 -9 24 1 14 10 15 10 5
-2 -15 -16 -18 -64 -4 -56 11 7 8 -21 -4 -31 -4 -4 -5 -2 0 6 6 10 4 12 -4 7
-8 -6 -9 -12 -2 -20 7 -9 7 -16 -2 -25 -9 -10 -9 -12 3 -9 16 3 21 -21 8 -39
-13 -17 10 -27 29 -11 12 9 15 9 9 1 -4 -7 -2 -13 3 -13 6 0 11 6 11 14 0 8 5
18 12 22 7 4 8 3 4 -4 -5 -8 -2 -10 9 -6 11 5 13 10 5 19 -8 9 -4 12 15 10 22
-3 29 5 26 27 -1 8 20 5 35 -5 7 -4 11 0 10 11 -1 12 6 17 22 16 17 -1 22 3
17 14 -3 9 -3 13 1 9 4 -4 14 -1 22 6 13 9 14 9 8 0 -12 -21 5 -15 25 9 11 11
19 16 19 10 0 -5 8 -9 18 -7 9 2 20 4 25 4 4 1 7 6 7 12 0 8 -4 8 -14 0 -10
-8 -16 -9 -21 -1 -4 6 -3 10 2 9 4 -1 10 0 13 1 19 7 57 4 52 -5 -3 -5 2 -4
11 4 12 10 17 10 17 2 0 -8 8 -10 20 -6 11 3 20 2 20 -3 0 -6 9 -8 20 -5 12 3
20 0 20 -7 0 -7 7 -10 15 -6 8 3 19 -2 24 -12 6 -9 11 -13 11 -8 0 6 7 1 16
-10 8 -10 13 -14 10 -8 -2 5 6 10 19 10 13 0 23 -5 22 -10 -1 -6 4 -10 12 -8
12 3 12 0 2 -12 -10 -12 -9 -14 7 -9 12 3 22 -1 25 -11 4 -9 14 -16 22 -16 10
0 14 5 10 13 -4 6 2 2 13 -10 11 -12 22 -19 26 -16 3 4 6 1 6 -5 0 -7 7 -12
15 -12 8 0 15 -6 15 -12 0 -10 2 -10 9 0 7 11 9 11 14 -2 4 -9 11 -16 17 -16
6 0 8 4 5 10 -4 6 1 7 12 3 15 -5 16 -4 5 8 -10 11 -8 17 11 34 13 11 18 17
12 13 -6 -4 -11 1 -11 11 0 12 5 17 15 13 11 -4 13 -1 8 12 -6 14 -4 17 10 12
15 -6 16 -5 6 5 -15 15 -17 33 -4 24 10 -6 25 29 30 66 0 5 6 7 13 3 7 -4 8
-3 4 5 -4 7 2 20 16 31 13 11 17 19 11 20 -7 0 -13 -5 -13 -12 0 -6 -3 -8 -6
-5 -4 4 -2 13 4 20 7 8 8 18 4 22 -4 5 -1 5 6 1 6 -4 12 -2 12 4 0 6 5 8 13 4
7 -5 6 0 -3 11 -8 10 -10 16 -5 13 6 -4 17 2 24 14 9 15 9 18 0 13 -7 -5 -10
-3 -7 6 3 8 14 13 24 11 18 -3 18 -3 -1 13 -11 9 -14 14 -7 10 6 -3 12 -1 12
5 0 6 4 9 9 5 6 -3 8 6 5 21 -3 16 -1 23 6 19 5 -3 10 1 10 10 0 10 5 13 13 9
7 -5 6 0 -3 11 -14 17 -13 18 3 12 15 -6 16 -4 6 14 -6 12 -7 19 -2 17 4 -3
16 3 25 13 12 12 13 19 5 23 -9 3 -8 8 3 15 8 6 11 11 6 11 -6 0 -1 7 10 16
10 8 13 13 7 9 -7 -3 -13 -1 -13 4 0 6 4 11 9 11 6 0 8 9 6 21 -4 18 -2 19 12
7 15 -12 15 -11 5 9 -8 14 -9 24 -2 28 6 3 8 17 6 31 -3 13 0 24 6 24 7 0 6 5
-1 14 -10 11 -8 17 6 25 10 6 14 11 9 11 -5 0 -2 8 5 17 10 11 10 14 2 9 -7
-4 -13 -2 -13 3 0 6 7 11 16 11 8 0 12 5 9 10 -4 6 -12 7 -18 3 -7 -4 -6 0 2
10 7 9 10 17 5 17 -5 0 -2 5 6 10 10 6 11 10 3 10 -7 0 -13 7 -13 15 0 8 6 15
13 15 8 0 9 3 1 8 -12 8 -11 36 1 66 6 14 5 17 -3 12 -8 -5 -10 -2 -6 8 3 9
11 13 18 9 8 -5 8 -3 0 8 -6 8 -10 29 -8 46 1 18 -2 31 -6 28 -4 -3 -11 2 -14
11 -3 8 -2 13 3 10 5 -3 12 1 15 10 3 8 2 12 -4 9 -5 -3 -8 4 -7 15 1 11 5 20
10 20 5 0 1 7 -7 16 -18 18 -21 34 -5 34 5 0 7 -5 3 -12 -4 -7 -3 -8 5 -4 9 6
9 11 -1 23 -7 9 -11 30 -10 47 2 24 0 28 -7 16 -6 -8 -11 -10 -11 -4 0 6 3 14
7 18 11 11 12 37 1 30 -6 -4 -8 -1 -6 7 3 8 1 22 -4 31 -7 14 -5 16 9 11 14
-5 12 0 -7 21 -18 20 -20 25 -7 20 17 -6 17 -4 -1 27 -10 19 -17 40 -15 47 3
6 -1 12 -8 12 -7 0 -5 6 7 15 13 10 14 14 5 15 -11 0 -11 3 -1 16 11 12 11 15
-1 12 -8 -2 -13 3 -11 10 1 7 -5 26 -14 43 -8 17 -11 28 -5 25 6 -4 11 -3 11
3 0 5 -6 12 -12 14 -10 4 -10 6 0 6 10 1 10 5 -2 17 -22 21 -20 40 2 23 16
-13 16 -13 -1 7 -9 11 -14 24 -10 27 3 4 0 7 -7 7 -11 0 -11 3 -2 12 13 13 -1
47 -25 61 -11 7 -11 12 -2 23 6 8 8 14 4 14 -4 0 -2 7 5 15 10 12 8 14 -8 10
-17 -3 -20 2 -18 36 2 22 -2 43 -7 46 -6 4 -7 1 -2 -7 5 -8 4 -11 -2 -7 -6 4
-10 20 -9 37 1 20 -3 30 -12 30 -11 0 -10 3 2 16 20 19 20 21 1 21 -8 0 -11
-5 -8 -10 3 -6 2 -7 -4 -4 -6 4 -9 18 -8 32 2 14 0 25 -5 25 -4 0 -10 7 -13
14 -4 11 -1 13 11 9 13 -4 12 -2 -3 10 -11 8 -17 19 -13 23 4 4 -1 19 -12 34
-23 32 -25 44 -7 35 6 -4 3 1 -7 9 -11 9 -21 26 -23 38 -2 12 -8 25 -14 28 -5
4 -7 14 -3 23 3 10 1 17 -6 17 -6 0 -8 -5 -4 -12 4 -7 3 -8 -4 -4 -9 5 -9 13
-1 28 6 11 7 18 2 15 -4 -3 -14 1 -21 9 -7 8 -8 14 -2 14 5 0 10 5 10 11 0 5
-4 7 -10 4 -10 -6 -13 3 -13 38 0 20 -13 23 -21 5 -3 -7 -3 -2 0 11 5 17 3 21
-6 16 -8 -5 -11 -4 -7 2 4 6 0 16 -8 23 -12 10 -13 16 -4 26 9 11 8 14 0 14
-7 0 -9 5 -6 10 3 6 -1 13 -9 16 -9 3 -16 10 -16 16 0 5 5 6 11 3 6 -4 5 2 -2
13 -7 12 -18 18 -24 14 -5 -3 -4 1 3 10 10 13 10 18 -1 30 -7 7 -12 18 -10 24
2 6 -3 17 -12 24 -18 15 -20 34 -2 24 9 -6 9 -5 0 8 -7 8 -10 18 -6 21 3 4 -5
7 -18 8 -13 0 -18 3 -11 6 6 2 12 9 12 14 0 6 -6 7 -12 3 -9 -5 -9 -2 1 9 10
13 10 17 1 17 -10 0 -10 3 -1 14 9 11 9 16 0 22 -8 4 -9 3 -5 -4 4 -7 5 -12 2
-12 -3 0 -10 10 -17 21 -8 15 -8 19 0 15 6 -4 11 -2 11 3 0 6 -5 11 -12 11 -6
0 -8 3 -5 6 3 4 2 15 -3 25 -7 12 -6 19 3 22 6 3 3 6 -7 6 -11 1 -16 4 -13 8
4 3 1 13 -6 21 -9 13 -9 14 1 8 7 -4 12 -1 12 9 0 9 -5 13 -11 9 -8 -5 -8 -1
0 14 8 15 8 23 -1 28 -7 5 -8 3 -3 -6 5 -9 4 -11 -3 -6 -9 5 -9 13 -2 26 7 13
6 20 -1 22 -7 2 -11 27 -10 62 0 34 -4 65 -12 74 -9 13 -9 14 1 8 6 -4 12 -2
12 3 0 6 -6 11 -12 11 -10 0 -9 3 1 9 9 6 11 18 7 36 -5 19 -3 25 5 20 8 -6 8
-2 0 14 -9 16 -9 21 1 22 7 0 4 4 -7 9 -16 7 -16 9 -4 9 14 1 16 7 9 36 -4 19
-4 33 0 30 5 -3 11 4 15 15 4 12 11 18 18 14 7 -4 7 -2 -1 7 -11 12 -14 12
-22 -1 -7 -11 -10 -11 -10 -2 0 7 7 15 15 18 11 5 12 10 4 26 -6 11 -8 22 -5
26 3 3 6 0 6 -6 0 -7 5 -12 10 -12 7 0 7 6 0 19 -7 15 -7 22 3 28 15 10 40 63
32 71 -3 3 -5 0 -5 -6 0 -7 -6 -12 -12 -12 -7 1 -3 9 9 19 12 10 19 21 16 25
-4 3 -1 6 7 6 10 0 10 3 0 15 -11 13 -10 14 5 9 13 -5 16 -4 11 4 -4 7 -2 12
4 12 8 0 8 6 0 21 -7 11 -9 23 -6 27 3 3 6 1 6 -5 0 -6 7 -13 14 -16 10 -4 13
-1 10 8 -8 19 -29 26 -42 13z m238 -1573 c0 -5 -5 -3 -10 5 -5 8 -10 20 -10
25 0 6 5 3 10 -5 5 -8 10 -19 10 -25z"/>
<path d="M4155 9030 c-3 -6 1 -7 9 -4 18 7 21 14 7 14 -6 0 -13 -4 -16 -10z"/>
<path d="M3645 8040 c-3 -5 -1 -10 4 -10 6 0 11 5 11 10 0 6 -2 10 -4 10 -3 0
-8 -4 -11 -10z"/>
<path d="M3630 7998 c0 -11 -4 -16 -10 -13 -6 4 -7 -1 -3 -11 5 -12 3 -15 -6
-9 -10 6 -11 3 -2 -14 9 -16 9 -20 -2 -15 -15 5 -16 1 -19 -63 -1 -24 -6 -43
-11 -43 -5 0 -7 7 -4 15 4 8 1 17 -6 21 -7 4 -9 4 -5 -1 4 -4 3 -16 -3 -26 -7
-14 -6 -19 3 -19 8 0 6 -5 -5 -11 -14 -8 -15 -14 -6 -31 6 -12 7 -18 1 -14 -5
3 -12 -1 -16 -9 -3 -8 0 -15 7 -15 8 0 8 -3 -2 -9 -8 -5 -10 -14 -6 -21 5 -8
4 -11 -3 -6 -6 3 -13 2 -17 -4 -3 -5 -1 -10 4 -10 6 0 11 -5 11 -11 0 -5 -5
-7 -11 -4 -7 5 -9 -3 -6 -24 4 -20 2 -29 -5 -25 -7 5 -9 -3 -5 -21 2 -16 1
-36 -3 -44 -10 -20 -23 -53 -26 -66 -1 -5 -3 -12 -4 -15 -9 -23 -9 -61 0 -55
15 9 12 -1 -6 -19 -10 -10 -11 -16 -3 -16 9 0 8 -4 -1 -15 -9 -11 -9 -15 -1
-15 7 0 9 -5 6 -10 -4 -6 -12 -7 -18 -4 -8 5 -8 3 1 -7 13 -14 17 -33 4 -25
-4 2 -7 -21 -5 -52 1 -31 -2 -61 -8 -68 -7 -8 -6 -14 1 -19 6 -3 8 -11 5 -16
-4 -5 2 -6 12 -2 13 4 10 0 -7 -16 -14 -12 -19 -20 -12 -16 6 3 12 3 13 -2 0
-4 2 -18 3 -30 2 -15 -3 -23 -13 -23 -11 0 -10 -3 5 -15 14 -11 16 -15 4 -15
-12 0 -11 -3 3 -11 14 -8 16 -14 6 -25 -9 -11 -9 -14 1 -14 10 0 10 -3 1 -14
-9 -11 -9 -16 -1 -21 7 -4 10 -24 8 -46 -3 -30 0 -39 12 -40 10 0 11 -2 3 -6
-10 -3 -9 -8 2 -19 8 -8 12 -21 8 -29 -3 -9 1 -23 8 -32 12 -14 12 -16 -1 -8
-13 8 -13 6 -2 -8 8 -9 11 -21 8 -26 -4 -5 -1 -13 5 -17 8 -5 9 -3 4 7 -5 8
-4 10 0 6 12 -10 16 -39 5 -32 -5 3 -7 -1 -6 -7 3 -18 25 -55 26 -43 0 6 -4
16 -10 23 -5 7 -2 6 7 -2 13 -12 14 -18 3 -30 -8 -11 -9 -16 -1 -16 6 0 11
-11 11 -25 0 -14 6 -25 13 -25 9 0 8 -3 -2 -9 -10 -7 -10 -10 -1 -13 10 -3 10
-9 1 -26 -10 -20 -9 -22 11 -22 13 0 19 -4 13 -8 -14 -10 -17 -32 -4 -32 6 0
9 -18 8 -46 -2 -31 1 -48 11 -54 9 -6 13 -23 12 -50 -2 -23 1 -39 5 -37 5 3
10 -3 10 -14 1 -10 -2 -19 -8 -19 -13 0 -7 -23 10 -36 11 -9 12 -12 1 -19 -9
-6 -11 -4 -5 5 6 9 4 11 -4 5 -9 -5 -10 -10 -2 -18 6 -6 11 -20 11 -32 0 -12
6 -27 13 -34 7 -8 7 -11 1 -8 -19 11 -24 -32 -6 -43 10 -5 12 -10 5 -10 -7 0
-13 -5 -13 -11 0 -8 4 -9 13 0 8 6 17 7 22 3 4 -4 2 3 -6 15 -7 12 -17 19 -23
16 -5 -3 -6 -1 -2 6 6 9 11 9 22 0 12 -10 13 -9 8 5 -5 13 -2 15 12 10 17 -6
17 -5 -1 10 -13 11 -15 15 -5 14 9 -2 16 6 18 21 3 17 0 21 -10 16 -7 -5 -10
-4 -5 1 9 9 13 10 45 13 14 1 15 3 2 11 -16 10 -15 11 15 29 14 9 15 11 3 7
-10 -3 -20 0 -24 6 -5 7 -2 8 6 3 10 -6 12 -4 6 10 -5 15 -4 16 9 5 13 -11 14
-10 9 4 -3 9 -1 16 6 16 6 0 8 5 5 11 -4 6 1 17 11 25 18 13 18 14 -1 8 -18
-5 -18 -4 -5 8 9 7 14 21 12 32 -2 10 0 16 6 13 5 -4 8 9 7 28 -1 19 3 35 7
35 5 0 7 4 4 9 -4 5 0 12 6 14 10 4 9 8 -2 16 -12 8 -12 11 5 17 18 7 18 8 -1
15 -17 7 -17 8 -1 8 10 1 17 9 17 22 0 11 -4 18 -8 15 -5 -3 -9 1 -9 9 0 8 5
11 10 8 6 -4 8 0 4 9 -3 9 0 21 6 27 8 8 8 11 -2 11 -7 0 -9 5 -6 10 13 21 11
122 -2 127 -7 3 -10 9 -7 14 3 5 10 7 15 4 5 -3 6 1 3 9 -3 9 -9 14 -13 11 -4
-2 -8 3 -8 11 0 9 6 13 15 9 12 -4 13 -3 3 9 -7 8 -10 20 -6 26 3 5 -1 13 -9
16 -9 3 -16 10 -16 16 0 5 4 7 9 3 5 -3 13 0 17 6 4 8 3 9 -4 5 -7 -4 -12 -2
-12 4 0 6 -4 8 -10 5 -7 -4 -7 2 0 19 6 17 6 27 -2 32 -7 5 -8 3 -3 -6 5 -8 4
-11 -3 -6 -6 4 -9 13 -6 20 3 8 1 17 -5 20 -6 4 -7 14 -4 23 4 11 3 14 -6 9
-10 -7 -10 -4 0 12 10 16 10 23 -4 36 -9 9 -13 24 -10 33 5 12 3 14 -8 8 -12
-8 -12 -6 0 8 10 13 10 17 1 17 -9 0 -9 4 1 17 12 14 12 16 0 8 -11 -6 -13 -4
-8 8 4 12 1 17 -11 17 -15 0 -15 2 -2 10 13 9 13 10 0 10 -13 0 -13 1 0 10 13
9 13 10 0 10 -13 0 -13 1 0 10 12 8 12 10 -5 10 -17 0 -17 2 -5 10 13 9 13 10
0 10 -12 0 -12 2 -2 9 11 6 10 10 -3 15 -13 5 -14 10 -7 19 8 9 7 21 -4 41
-13 26 -13 30 3 42 10 8 13 13 7 12 -7 -2 -12 1 -12 6 0 5 -6 13 -14 17 -10 7
-10 9 0 9 7 0 10 5 7 10 -4 6 -11 8 -16 5 -5 -4 -9 -2 -9 4 0 5 6 12 13 14 8
4 8 6 -2 6 -11 1 -10 5 5 17 10 8 14 13 8 10 -7 -3 -15 1 -18 10 -3 8 -2 12 4
9 6 -3 7 1 4 9 -3 9 -10 13 -15 10 -5 -3 -6 2 -3 10 3 9 11 13 18 9 6 -3 2 4
-9 17 -11 13 -14 20 -7 16 6 -4 12 -2 12 3 0 6 -5 11 -11 11 -8 0 -7 5 2 16 8
9 9 18 3 22 -5 4 -9 27 -9 52 0 28 -6 50 -15 58 -13 11 -13 11 0 7 13 -4 14 5
12 60 -2 41 -7 63 -14 59 -5 -4 -3 5 7 19 10 16 12 27 6 31 -7 5 -7 15 -1 31
8 20 6 25 -6 25 -8 0 -12 5 -9 10 4 6 10 8 14 6 3 -3 7 3 7 13 0 10 -6 18 -13
18 -7 0 -13 -9 -13 -19z m-160 -814 c0 -8 -19 -13 -24 -6 -3 5 1 9 9 9 8 0 15
-2 15 -3z"/>
<path d="M4345 7860 c4 -6 11 -8 16 -5 14 9 11 15 -7 15 -8 0 -12 -5 -9 -10z"/>
<path d="M5191 7791 c-8 -5 -9 -11 -3 -15 5 -3 12 1 16 9 6 17 6 18 -13 6z"/>
<path d="M3485 7580 c-3 -5 -1 -10 4 -10 6 0 11 5 11 10 0 6 -2 10 -4 10 -3 0
-8 -4 -11 -10z"/>
<path d="M5716 6668 c3 -5 10 -6 15 -3 13 9 11 12 -6 12 -8 0 -12 -4 -9 -9z"/>
<path d="M4833 6365 c0 -8 4 -12 9 -9 5 3 6 10 3 15 -9 13 -12 11 -12 -6z"/>
<path d="M4625 5609 c-4 -6 -5 -12 -2 -15 2 -3 7 2 10 11 7 17 1 20 -8 4z"/>
<path d="M3946 5398 c3 -5 10 -6 15 -3 13 9 11 12 -6 12 -8 0 -12 -4 -9 -9z"/>
<path d="M3913 5393 c4 -6 0 -16 -8 -23 -13 -11 -15 -10 -9 6 5 16 3 16 -14
-3 -21 -24 -38 -32 -27 -12 4 6 -2 5 -13 -2 -12 -7 -18 -17 -15 -22 3 -5 -4
-6 -17 -2 -14 4 -20 3 -16 -3 3 -5 -2 -16 -11 -23 -12 -10 -14 -10 -9 -1 4 6
2 12 -3 12 -6 0 -11 -5 -11 -11 0 -5 -4 -8 -9 -5 -11 7 -45 -30 -38 -41 3 -5
-4 -10 -15 -10 -11 -1 -28 -9 -37 -17 -10 -9 -22 -13 -26 -9 -5 5 -3 -1 5 -11
10 -13 10 -17 3 -12 -8 4 -13 2 -13 -4 0 -7 -6 -10 -13 -7 -7 3 -13 -3 -13
-13 0 -10 5 -16 11 -12 5 3 4 -2 -4 -12 -15 -18 -23 -59 -10 -50 9 5 6 -23 -4
-32 -3 -4 -3 -12 0 -18 11 -17 12 -37 2 -30 -5 3 -7 10 -4 15 4 5 2 9 -3 9
-10 0 -7 -74 3 -91 4 -5 1 -9 -6 -9 -7 0 -4 -7 7 -15 13 -10 14 -13 3 -10 -11
4 -15 0 -14 -14 1 -11 5 -24 10 -28 4 -5 5 -2 0 6 -6 10 -4 12 5 6 10 -6 10
-11 -3 -20 -21 -15 -22 -26 -3 -19 10 4 13 -3 10 -26 -2 -17 -7 -36 -10 -42
-4 -6 -2 -8 3 -5 6 4 14 0 17 -9 3 -8 2 -13 -3 -10 -11 7 -1 -46 13 -63 6 -9
7 -12 1 -9 -6 4 -11 -2 -11 -13 0 -14 5 -18 21 -13 16 4 17 3 5 -5 -8 -6 -10
-11 -5 -11 6 0 3 -5 -5 -10 -12 -8 -12 -10 5 -11 11 0 15 -3 9 -5 -14 -6 2
-58 25 -86 8 -10 17 -30 19 -45 2 -15 9 -30 15 -32 19 -7 87 -77 81 -84 -9 -8
19 -3 36 8 12 7 13 6 3 -6 -9 -11 -8 -19 4 -34 14 -18 15 -19 9 -1 -5 15 -4
17 7 8 8 -7 17 -8 22 -4 4 4 3 -3 -4 -15 -11 -22 0 -26 26 -10 7 4 14 -1 18
-13 4 -11 15 -20 26 -20 11 0 17 -4 14 -10 -4 -6 5 -10 19 -10 18 0 26 -6 27
-17 0 -12 2 -13 6 -5 4 10 8 10 19 1 12 -10 13 -8 8 7 -4 10 -3 16 1 12 5 -5
14 0 21 11 8 11 23 17 38 16 19 -2 23 1 19 13 -4 9 -2 13 4 9 6 -4 14 -1 16 5
4 10 6 10 6 1 1 -18 41 17 41 36 0 11 4 10 15 -5 14 -18 14 -18 10 4 -4 21 -2
22 12 10 14 -11 16 -11 11 4 -4 10 -1 19 8 22 10 4 13 2 8 -7 -5 -8 -2 -8 9 2
9 7 15 17 12 21 -8 14 27 21 42 8 8 -6 13 -7 12 -2 -3 19 1 34 12 34 5 0 7 -5
3 -12 -4 -7 -3 -8 4 -4 6 4 9 13 6 21 -4 10 2 13 20 11 22 -3 24 -1 14 12 -11
13 -10 14 9 4 16 -9 24 -9 29 0 4 7 3 8 -4 4 -7 -4 -12 -2 -12 3 0 6 7 11 15
11 8 0 15 5 15 10 0 6 5 10 11 10 5 0 7 -5 3 -12 -4 -7 -3 -8 4 -4 9 5 9 12 0
26 -7 10 -15 17 -18 15 -3 -2 -6 4 -7 13 -3 44 -8 60 -15 56 -5 -3 -5 -11 -1
-17 4 -7 -1 -6 -11 2 -12 10 -14 17 -6 25 14 14 13 29 -2 20 -8 -5 -9 -2 -4
11 5 15 4 16 -8 6 -11 -10 -14 -9 -12 1 1 7 6 19 10 27 6 10 5 12 -2 7 -8 -5
-12 0 -12 13 0 12 -6 21 -12 21 -10 0 -9 3 1 9 11 7 11 9 0 13 -12 5 -12 9 0
29 13 21 12 23 -1 12 -19 -17 -31 -4 -15 15 10 13 9 14 -2 7 -12 -7 -13 0 -8
35 4 30 3 39 -4 29 -7 -9 -8 -2 -3 25 4 24 3 37 -3 33 -5 -3 -10 0 -10 8 0 8
4 12 9 9 4 -3 8 0 8 5 0 6 -5 11 -11 11 -8 0 -8 5 1 15 8 10 9 15 2 15 -6 0
-9 7 -6 15 4 8 10 13 14 10 5 -3 12 0 16 6 4 7 3 9 -4 5 -6 -3 -13 -2 -16 3
-4 5 -3 12 2 15 4 2 7 23 5 45 -1 23 3 41 8 41 7 0 7 6 0 17 -7 13 -5 23 6 35
15 17 15 18 -3 18 -16 0 -17 2 -4 10 12 8 11 10 -7 10 -13 0 -23 5 -23 11 0 8
-4 8 -14 0 -12 -10 -13 -8 -8 11 5 20 4 22 -11 9 -15 -12 -18 -10 -26 10 -5
13 -10 18 -10 10 -1 -9 -6 -8 -18 6 -10 10 -15 14 -10 9 16 -21 6 -28 -12 -8
-10 12 -25 22 -34 22 -9 0 -19 5 -23 12 -5 7 -3 8 6 3 9 -5 11 -4 6 3 -5 9
-13 9 -29 0 -19 -9 -20 -9 -10 3 9 11 6 14 -19 15 -18 1 -35 9 -41 19 -8 14
-11 15 -18 4 -7 -11 -9 -10 -9 3 0 14 -8 18 -38 16 -22 0 -45 3 -52 7 -8 5
-11 4 -7 -2z m-171 -115 c-7 -7 -12 -8 -12 -2 0 14 12 26 19 19 2 -3 -1 -11
-7 -17z"/>
<path d="M3445 5341 c3 -5 1 -12 -5 -16 -7 -4 -6 -13 1 -27 8 -15 8 -19 0 -14
-7 5 -11 -2 -11 -18 0 -14 -4 -27 -8 -30 -5 -3 -8 -15 -7 -28 1 -13 -5 -26
-14 -30 -14 -6 -14 -7 2 -7 9 -1 17 -5 17 -11 0 -5 -8 -6 -17 -3 -15 6 -16 4
-5 -9 10 -13 10 -17 0 -21 -10 -4 -10 -8 2 -16 8 -6 10 -11 4 -11 -13 0 -25
-48 -25 -98 0 -18 -4 -30 -9 -27 -6 3 -7 -1 -4 -9 10 -27 10 -126 -1 -127 -5
0 -1 -4 10 -9 11 -5 15 -9 10 -9 -6 -1 -11 -10 -12 -21 -1 -11 2 -18 7 -15 6
3 7 -1 4 -9 -3 -9 -11 -13 -18 -10 -6 3 -3 -1 7 -9 18 -15 24 -32 7 -22 -5 3
-10 -1 -10 -10 0 -9 4 -14 8 -11 5 3 9 -1 9 -9 0 -8 -3 -12 -7 -10 -3 2 -6 -5
-6 -15 0 -10 4 -16 8 -14 7 5 13 -43 9 -75 -2 -7 2 -10 8 -7 5 4 13 1 17 -5 4
-7 3 -9 -4 -5 -6 3 -13 2 -17 -4 -3 -5 0 -10 7 -10 9 0 9 -3 -2 -10 -12 -8
-12 -10 -1 -10 9 0 12 -8 9 -25 -3 -13 -2 -22 3 -20 4 3 10 1 14 -5 3 -5 1
-10 -5 -10 -6 0 -8 -5 -5 -10 4 -6 10 -8 15 -5 4 3 6 -4 3 -15 -3 -11 1 -28 8
-37 10 -12 10 -14 2 -9 -7 4 -13 2 -13 -3 0 -6 5 -11 11 -11 6 0 9 -7 5 -15
-3 -8 2 -18 10 -23 9 -5 15 -12 15 -15 -3 -19 0 -27 9 -27 6 0 8 11 6 25 -3
13 0 28 6 31 6 4 8 2 4 -4 -3 -6 -1 -14 6 -18 7 -4 10 -4 6 1 -4 4 -3 14 3 21
7 8 6 14 -2 20 -8 5 -9 3 -4 -6 5 -9 4 -11 -4 -6 -12 8 -1 30 24 48 6 5 5 8
-2 8 -7 0 -13 5 -13 11 0 6 7 9 15 5 13 -4 14 -2 5 14 -7 14 -7 20 0 20 5 0
10 5 10 11 0 5 -4 8 -9 4 -5 -3 -13 0 -17 6 -4 7 -3 9 2 6 6 -3 15 3 22 14 10
16 10 21 -3 25 -8 4 -15 10 -15 16 0 5 6 6 13 3 6 -4 2 3 -11 14 -17 15 -21
26 -16 46 4 15 3 30 -2 34 -17 12 -34 60 -23 67 6 4 6 11 -2 21 -10 12 -10 16
2 24 10 6 10 9 2 9 -7 0 -13 5 -13 11 0 5 5 7 11 3 6 -3 3 5 -6 20 -14 20 -14
26 -4 26 11 0 11 2 -1 10 -11 7 -11 10 -2 10 9 0 10 5 4 16 -10 19 -5 51 12
74 10 13 9 13 -6 1 -11 -8 -18 -9 -18 -3 0 6 5 14 10 17 6 4 7 11 3 18 -13 21
-9 57 7 58 12 0 12 2 -2 7 -13 5 -15 11 -8 22 12 18 13 33 2 26 -4 -2 -8 10
-8 27 -1 18 1 26 3 20 3 -7 8 -13 13 -13 11 0 7 33 -5 42 -6 5 -6 8 1 8 12 0
12 45 0 72 -5 10 -12 15 -17 12 -5 -3 -5 6 1 20 8 21 6 26 -6 26 -8 0 -12 5
-9 10 4 6 11 8 16 5 5 -3 6 1 3 9 -3 9 -10 16 -16 16 -5 0 -7 -4 -3 -9z m32
-116 c0 -8 -4 -12 -9 -9 -5 3 -6 10 -3 15 9 13 12 11 12 -6z"/>
<path d="M4325 5180 c-3 -5 1 -10 10 -10 9 0 13 5 10 10 -3 6 -8 10 -10 10 -2
0 -7 -4 -10 -10z"/>
<path d="M5611 4754 c0 -11 3 -14 6 -6 3 7 2 16 -1 19 -3 4 -6 -2 -5 -13z"/>
<path d="M3496 4687 c3 -10 9 -15 12 -12 3 3 0 11 -7 18 -10 9 -11 8 -5 -6z"/>
<path d="M5653 4552 c-3 -14 -11 -21 -19 -18 -8 3 -11 0 -7 -10 3 -7 0 -14 -7
-14 -6 0 -8 -5 -5 -10 4 -6 3 -9 -2 -8 -5 2 -21 -7 -37 -19 -16 -13 -25 -23
-20 -23 5 0 3 -4 -4 -8 -6 -5 -23 -23 -37 -42 -14 -19 -25 -29 -25 -24 0 6 3
14 8 20 4 5 -1 1 -10 -8 -9 -10 -19 -24 -22 -31 -5 -9 -7 -9 -12 1 -6 13 -25
17 -23 5 3 -19 -2 -33 -12 -33 -5 0 -7 6 -4 13 4 6 0 4 -8 -5 -8 -10 -17 -15
-20 -11 -4 3 -7 1 -7 -6 0 -8 -6 -11 -16 -7 -8 3 -13 2 -11 -2 3 -4 -7 -16
-22 -27 -24 -18 -25 -18 -11 0 14 17 14 18 -10 5 -14 -8 -28 -13 -32 -12 -5 1
-8 -3 -8 -9 0 -8 -5 -7 -15 1 -13 11 -14 10 -9 -5 5 -12 4 -16 -3 -12 -18 11
-21 -17 -4 -31 14 -10 13 -11 -4 -5 -16 6 -18 4 -8 -8 6 -8 11 -18 11 -22 0
-5 4 -12 8 -15 4 -4 4 -1 -1 7 -5 9 -4 12 3 7 7 -4 8 -15 3 -29 -6 -15 -4 -31
4 -47 7 -14 11 -28 9 -32 -2 -3 0 -18 6 -33 7 -19 7 -24 -2 -19 -8 5 -9 2 -5
-10 4 -10 7 -20 7 -22 0 -3 6 -2 13 2 10 6 10 4 0 -7 -15 -15 -18 -33 -5 -25
5 3 9 -1 9 -9 0 -8 -4 -12 -9 -9 -4 3 -8 1 -8 -5 0 -5 6 -11 12 -13 7 -3 11
-18 10 -38 -1 -19 3 -37 10 -42 10 -6 10 -8 -2 -8 -12 0 -13 -2 -1 -9 7 -5 14
-22 14 -37 0 -16 2 -23 4 -16 3 6 11 12 19 12 9 0 12 -5 8 -11 -4 -7 1 -7 16
1 15 8 20 8 16 1 -5 -8 6 -10 34 -8 26 2 47 -2 55 -10 10 -9 14 -10 17 -1 3 7
9 8 19 3 20 -13 40 -15 33 -4 -3 5 -1 9 5 9 5 0 12 -4 16 -10 4 -6 15 -6 30 0
18 7 25 6 25 -3 0 -9 2 -9 8 -1 9 16 43 21 61 10 10 -6 12 -5 7 3 -5 7 4 14
26 18 18 4 37 6 41 5 5 -1 5 3 1 9 -5 9 -2 10 10 6 9 -4 15 -3 12 2 -3 5 1 14
9 21 13 11 14 10 9 -6 -4 -15 -1 -13 16 6 12 14 18 18 14 10 -4 -8 4 -5 18 8
13 12 28 19 32 15 4 -4 4 0 0 10 -4 12 -1 17 11 17 10 0 14 -5 9 -12 -4 -8 -3
-10 2 -5 9 8 10 12 13 38 1 8 5 8 15 0 11 -9 13 -7 11 12 -2 17 3 23 17 24 11
1 28 12 39 24 10 12 19 17 19 10 0 -7 4 -10 10 -6 5 3 6 13 3 23 -6 14 -4 15
9 4 12 -10 17 -10 27 1 6 8 8 17 4 20 -3 4 -1 7 6 7 7 0 9 5 5 12 -4 6 -3 9 2
5 5 -3 18 1 29 9 13 10 15 14 4 14 -11 0 -12 2 -1 9 8 4 13 11 13 15 -1 3 -1
7 0 9 9 29 7 47 -3 41 -7 -4 -2 5 12 21 14 16 20 25 13 21 -6 -3 -14 -2 -18 4
-3 5 0 10 7 10 8 1 6 6 -6 15 -16 12 -17 15 -4 15 9 0 18 9 21 21 4 16 3 18
-8 9 -12 -10 -13 -8 -10 9 2 12 6 25 10 30 3 5 1 13 -5 16 -8 5 -7 12 2 23 9
11 9 13 1 9 -7 -5 -17 2 -24 15 -12 22 -11 22 6 8 17 -14 17 -14 7 7 -15 27
-15 46 -1 37 6 -3 3 5 -6 19 -9 14 -17 30 -16 34 0 4 -7 7 -16 5 -10 -2 -12 1
-7 9 5 9 2 11 -8 6 -9 -3 -24 0 -34 8 -13 9 -24 10 -36 4 -11 -6 -18 -6 -18 0
0 5 -7 12 -16 15 -10 4 -13 2 -8 -7 4 -6 -3 -3 -15 8 -15 12 -34 18 -57 17
-27 -2 -34 0 -28 10 5 8 1 8 -11 -2 -12 -9 -16 -10 -11 -2 6 9 1 11 -18 8 -17
-3 -29 1 -36 12 -5 9 -10 12 -10 5 0 -6 -8 -10 -17 -8 -10 1 -17 7 -16 11 1 5
-16 9 -38 9 -33 0 -41 -4 -46 -23z m-53 -76 c0 -2 -8 -10 -17 -17 -16 -13 -17
-12 -4 4 13 16 21 21 21 13z m455 -455 c3 -5 2 -12 -3 -15 -5 -3 -9 1 -9 9 0
17 3 19 12 6z"/>
<path d="M3660 4520 c0 -5 5 -10 11 -10 5 0 7 5 4 10 -3 6 -8 10 -11 10 -2 0
-4 -4 -4 -10z"/>
<path d="M3711 4437 c2 -1 15 -11 29 -22 l25 -20 -19 23 c-11 12 -24 22 -29
22 -6 0 -8 -1 -6 -3z"/>
<path d="M4523 4421 c-12 -10 -20 -21 -17 -24 3 -3 -3 -3 -14 0 -11 2 -23 0
-26 -6 -5 -7 0 -9 11 -5 10 3 2 -3 -19 -14 -20 -11 -48 -22 -62 -26 -14 -3
-25 -12 -23 -19 1 -6 -6 -11 -15 -11 -10 1 -16 -3 -15 -8 1 -6 -4 -13 -12 -16
-9 -3 -11 0 -6 8 5 9 4 11 -4 6 -6 -4 -8 -12 -5 -18 5 -7 1 -9 -9 -5 -11 4
-14 2 -11 -8 3 -8 -1 -12 -13 -12 -10 1 -17 -3 -16 -10 2 -7 -4 -10 -12 -7 -8
4 -18 -1 -21 -10 -5 -13 -9 -14 -20 -5 -12 10 -13 8 -7 -6 5 -14 3 -17 -10
-12 -9 3 -19 1 -23 -5 -4 -7 -3 -8 4 -4 24 15 11 -1 -19 -23 -18 -13 -29 -19
-25 -12 10 16 -7 14 -30 -5 -10 -8 -14 -13 -7 -10 12 6 12 -18 0 -30 -11 -12
-8 -36 4 -28 8 4 8 0 0 -15 -7 -11 -8 -21 -4 -21 5 0 9 -15 8 -32 0 -18 7 -40
15 -48 9 -8 10 -11 3 -6 -10 6 -12 4 -7 -8 3 -9 10 -16 15 -16 5 0 9 -5 9 -11
0 -5 -6 -7 -12 -4 -7 4 -5 0 4 -8 10 -8 15 -17 11 -20 -3 -4 0 -14 8 -24 9
-11 10 -14 2 -9 -9 5 -11 2 -7 -8 3 -9 11 -13 16 -10 6 4 5 -4 -2 -16 -7 -13
-8 -20 -2 -16 15 9 28 -12 31 -50 0 -8 6 -12 11 -9 6 3 10 -1 10 -10 0 -18 23
-45 38 -45 5 0 17 -10 26 -22 9 -13 14 -17 11 -10 -3 6 -2 12 3 12 6 0 13 -7
16 -16 4 -10 12 -14 22 -10 12 5 15 2 10 -9 -3 -9 -2 -13 4 -10 6 3 10 1 10
-5 0 -6 5 -8 10 -5 6 3 10 1 10 -4 0 -6 5 -11 11 -11 5 0 7 4 4 10 -3 6 1 7 9
4 9 -3 13 -10 10 -15 -3 -5 4 -9 16 -9 14 0 19 -4 14 -12 -6 -10 -4 -10 7 0
18 17 29 15 29 -4 0 -13 3 -14 15 -4 12 10 16 9 21 -5 5 -13 9 -14 15 -3 7 10
9 9 9 -4 0 -9 5 -20 12 -24 7 -4 8 -3 4 4 -4 7 -3 12 3 12 5 0 15 -8 20 -17
10 -17 10 -16 11 2 1 11 4 14 7 8 2 -7 12 -13 21 -13 8 0 24 -8 34 -17 18 -16
18 -16 11 3 -7 19 -6 19 21 0 16 -10 25 -13 22 -7 -4 6 -2 11 3 11 10 0 15
-14 12 -32 0 -4 6 -5 15 -1 15 6 60 7 109 4 17 -1 18 -3 5 -11 -9 -6 -10 -10
-3 -10 6 0 15 5 18 10 3 6 11 10 16 10 6 0 7 -5 3 -12 -5 -7 -3 -8 5 -4 7 5
10 15 6 23 -4 13 -3 14 10 3 12 -10 15 -10 15 4 0 9 5 15 12 13 7 -1 12 3 13
10 0 6 4 15 9 20 5 5 6 3 2 -4 -10 -17 2 -16 19 1 8 7 11 17 7 20 -3 4 1 4 10
1 11 -5 22 2 33 22 9 15 14 20 11 11 -6 -21 20 -13 28 8 4 10 2 12 -6 8 -7 -5
-8 -3 -4 5 5 7 15 10 23 7 10 -4 13 -2 10 8 -4 9 -1 13 7 10 7 -3 21 6 32 18
l19 23 -22 -19 c-13 -11 -23 -15 -23 -10 0 14 39 36 51 29 5 -4 8 -1 7 7 -2 7
3 12 11 10 12 -3 12 -1 0 14 -12 16 -12 17 4 11 9 -3 17 -2 17 4 0 6 5 7 12 3
7 -4 8 -3 4 5 -4 6 -11 9 -15 7 -4 -3 -7 9 -6 27 1 18 -3 38 -9 46 -9 12 -8
13 4 6 11 -7 10 -2 -4 19 -10 16 -13 25 -7 22 6 -4 11 0 11 8 0 9 -4 16 -10
16 -12 0 -9 22 5 32 6 5 3 8 -6 8 -19 0 -33 26 -19 35 6 4 10 11 10 16 0 6 -5
7 -12 3 -7 -4 -8 -3 -4 4 11 18 16 53 7 47 -5 -3 -12 2 -15 11 -3 8 -2 12 4 9
6 -3 10 -2 10 3 0 6 -7 13 -15 16 -13 5 -14 10 -4 27 10 19 9 21 -7 15 -17 -7
-17 -6 0 13 13 14 14 21 5 27 -8 5 -10 3 -4 -6 5 -8 4 -11 -2 -7 -6 4 -9 18
-8 32 2 14 -1 25 -6 25 -4 0 -6 8 -3 18 5 14 4 15 -5 2 -9 -12 -13 -13 -20 -2
-7 11 -9 11 -14 -1 -6 -15 -45 -16 -69 -1 -18 12 -52 11 -60 -1 -5 -6 -11 -5
-17 4 -5 8 -14 10 -22 6 -9 -6 -11 -3 -6 8 3 10 2 17 -3 17 -6 0 -10 -8 -10
-17 -1 -17 -2 -17 -14 0 -9 11 -17 14 -20 8 -4 -6 -13 -8 -21 -5 -8 4 -13 9
-10 14 2 4 -6 6 -20 5 -18 -2 -22 1 -18 13 5 14 2 13 -16 -3 -12 -11 -22 -15
-21 -10 4 20 0 36 -9 31 -4 -3 -19 3 -31 14 -25 22 -35 26 -25 10 3 -5 0 -7
-9 -4 -9 3 -12 12 -8 22 5 14 3 15 -10 5 -12 -11 -18 -9 -33 7 -10 11 -23 17
-29 13 -6 -4 -5 1 3 10 7 9 10 17 5 18 -5 0 -17 2 -26 4 -10 2 -18 -2 -18 -8
0 -5 -3 -8 -6 -5 -3 4 -1 16 6 27 13 25 11 26 -17 2z"/>
<path d="M5310 4425 c-24 -13 -24 -14 -3 -12 12 1 25 7 27 14 6 16 7 16 -24
-2z"/>
<path d="M4600 4376 c0 -2 7 -9 15 -16 9 -7 15 -8 15 -2 0 5 -7 12 -15 16 -8
3 -15 4 -15 2z"/>
<path d="M3624 4345 c-10 -8 -14 -15 -8 -15 6 0 17 7 24 15 16 19 9 19 -16 0z"/>
<path d="M3632 4327 c-16 -9 -19 -16 -11 -24 8 -8 7 -13 -2 -18 -8 -5 -10 -4
-5 3 4 7 5 12 2 12 -3 0 -10 -10 -17 -21 -8 -15 -8 -19 0 -15 6 4 11 3 11 -2
0 -6 -6 -12 -13 -15 -14 -5 -15 -45 -2 -67 5 -9 4 -11 -4 -6 -8 5 -10 0 -7
-19 4 -21 2 -25 -10 -21 -13 5 -13 3 0 -16 12 -17 13 -25 3 -37 -9 -12 -9 -13
1 -7 11 6 17 -11 13 -36 0 -5 8 -8 18 -8 10 0 22 -7 25 -16 6 -15 4 -15 -11
-3 -17 13 -17 13 0 -7 9 -11 14 -24 10 -29 -5 -4 -2 -5 5 -1 6 4 13 2 13 -3 1
-6 2 -15 3 -20 0 -5 5 -13 10 -18 5 -5 6 -3 2 5 -4 7 -2 12 6 12 8 0 14 -10
15 -21 1 -12 9 -29 17 -38 9 -10 13 -22 9 -26 -5 -5 -1 -4 9 3 12 10 18 10 24
1 4 -8 3 -9 -4 -5 -7 4 -12 2 -12 -3 0 -6 7 -11 16 -11 10 0 14 -6 10 -15 -5
-14 -1 -17 33 -19 8 -1 15 -9 17 -19 4 -27 14 -34 24 -17 6 8 10 10 10 4 0 -5
-6 -16 -12 -23 -11 -11 -10 -13 0 -7 7 5 16 -2 22 -18 10 -26 50 -37 50 -14 0
6 3 8 6 5 4 -4 2 -13 -4 -20 -9 -10 -8 -14 3 -14 8 0 15 4 15 9 0 5 15 8 34 6
19 -1 45 6 61 16 15 10 25 14 21 8 -3 -5 1 -12 9 -15 9 -4 12 -1 8 9 -4 10 0
13 13 8 18 -5 18 -5 0 10 -11 9 -16 16 -12 16 5 0 1 12 -9 26 -9 14 -14 28
-11 31 3 3 -2 12 -12 20 -16 12 -15 13 3 7 16 -6 18 -5 8 7 -7 7 -13 21 -13
31 0 12 -5 16 -17 11 -15 -5 -16 -3 -5 8 6 7 12 17 12 22 0 4 -6 5 -12 1 -10
-6 -10 -4 0 8 10 13 10 19 -3 32 -9 9 -13 16 -9 16 3 0 0 8 -7 17 -8 9 -9 14
-4 11 6 -4 11 2 11 13 0 10 -4 19 -8 19 -4 0 -7 3 -7 8 4 24 -2 52 -10 47 -6
-3 -7 6 -2 23 7 21 5 29 -5 29 -7 0 -11 -5 -7 -10 3 -5 -4 -4 -16 2 -11 7 -21
17 -21 24 0 7 -4 6 -10 -3 -8 -13 -10 -13 -10 2 0 12 -5 15 -17 11 -10 -4 -14
-2 -10 4 4 6 0 13 -8 17 -8 3 -17 1 -20 -5 -4 -5 -11 -7 -16 -3 -6 3 -5 12 3
21 11 14 10 15 -11 8 -19 -6 -23 -4 -18 8 4 10 0 13 -12 10 -10 -2 -24 4 -32
13 -12 15 -12 16 0 9 10 -5 12 -4 7 4 -5 8 -12 9 -20 2 -8 -7 -17 -6 -26 1
-12 8 -12 9 3 4 9 -3 17 -1 17 4 0 9 -14 14 -32 11 -4 0 -5 6 -2 14 5 11 2 13
-10 9 -12 -4 -16 0 -16 15 0 24 -6 25 -38 8z m235 -599 c-3 -8 -6 -5 -6 6 -1
11 2 17 5 13 3 -3 4 -12 1 -19z"/>
<path d="M4056 4273 c-6 -14 -5 -15 5 -6 7 7 10 15 7 18 -3 3 -9 -2 -12 -12z"/>
<path d="M4075 4130 c-3 -5 -2 -10 4 -10 5 0 13 5 16 10 3 6 2 10 -4 10 -5 0
-13 -4 -16 -10z"/>
<path d="M6127 3905 c3 -8 9 -12 14 -9 12 7 11 11 -5 17 -10 4 -13 1 -9 -8z"/>
<path d="M6086 3889 c6 -10 -22 -30 -30 -22 -4 4 -4 -1 0 -12 7 -18 6 -18 -9
-6 -15 12 -17 12 -10 -4 5 -14 3 -17 -10 -12 -10 4 -16 2 -14 -6 1 -7 -6 -11
-15 -11 -11 1 -15 -5 -13 -18 3 -16 1 -17 -10 -8 -10 8 -15 8 -21 -1 -4 -8 -3
-9 4 -5 7 4 12 2 12 -3 0 -6 -9 -11 -20 -11 -10 0 -23 -7 -28 -16 -5 -9 -12
-15 -15 -15 -20 3 -41 -1 -29 -6 22 -9 3 -22 -26 -17 -26 5 -26 5 -7 -11 11
-9 15 -14 9 -11 -10 5 -25 -37 -23 -60 0 -4 -5 -11 -13 -15 -9 -6 -9 -9 -1 -9
6 0 14 4 18 10 3 5 12 7 19 4 15 -6 48 34 40 47 -2 4 1 11 7 15 8 4 9 3 5 -4
-4 -7 -1 -12 9 -12 11 0 15 5 11 15 -3 8 -2 14 2 14 25 -4 34 3 29 22 -5 20
-5 20 14 3 16 -14 20 -15 17 -4 -2 8 3 14 10 12 10 -2 10 2 1 19 -6 12 -7 19
-1 15 10 -6 27 21 23 37 -1 5 3 6 9 2 7 -4 7 -12 0 -26 -6 -10 -8 -19 -6 -19
3 0 13 14 22 31 10 20 11 28 3 24 -8 -6 -10 -4 -5 4 5 7 14 10 22 7 9 -4 18 4
24 19 5 14 13 25 18 25 5 0 9 6 9 13 0 7 -8 13 -18 13 -10 0 -16 -3 -13 -7z
m14 -13 c0 -2 -8 -10 -17 -17 -16 -13 -17 -12 -4 4 13 16 21 21 21 13z m-225
-236 c-3 -5 -14 -8 -25 -7 -10 1 -17 5 -14 9 3 4 12 4 21 1 12 -5 14 -3 8 7
-5 9 -4 11 4 6 6 -4 9 -11 6 -16z"/>
<path d="M5265 3654 c-16 -7 -26 -13 -21 -14 5 0 -4 -12 -20 -27 -16 -15 -27
-28 -26 -31 2 -2 0 -7 -4 -10 -4 -4 -4 -1 0 6 4 6 2 12 -3 12 -6 0 -11 -6 -11
-14 0 -8 -5 -18 -12 -22 -8 -5 -9 -2 -5 10 4 10 3 15 -3 11 -6 -3 -10 -14 -10
-24 0 -25 -26 -45 -46 -37 -14 5 -15 4 -5 -8 10 -12 9 -14 -6 -12 -19 3 -28
-4 -57 -44 l-18 -25 7 25 c5 19 4 22 -4 10 -6 -8 -11 -23 -11 -33 0 -10 -5
-15 -10 -12 -6 4 -7 11 -4 17 4 7 2 8 -5 4 -17 -11 6 -37 26 -29 11 4 14 2 9
-5 -4 -7 -1 -12 8 -12 9 0 16 -5 16 -11 0 -5 5 -7 10 -4 6 3 10 -4 11 -17 0
-22 1 -22 9 -3 8 19 9 19 9 -2 1 -22 10 -28 40 -24 8 2 10 -3 6 -11 -6 -10 -5
-11 6 0 7 6 17 12 22 12 4 0 5 -6 1 -12 -6 -10 -5 -10 8 -1 8 7 18 10 22 6 4
-4 4 1 0 12 -6 16 -4 18 6 8 9 -9 19 -9 32 -2 11 6 29 10 41 9 37 -3 48 0 42
10 -4 6 -3 10 2 9 4 -1 10 0 13 1 19 7 39 7 34 -1 -10 -17 5 -9 27 14 12 12
19 16 15 10 -11 -19 5 -16 21 5 8 10 11 11 7 2 -7 -12 -5 -13 8 -3 8 7 19 9
23 5 5 -4 5 1 2 11 -5 13 -3 16 6 10 23 -14 39 -12 32 5 -3 9 -3 13 1 10 4 -4
16 -3 27 3 15 9 18 8 12 -3 -3 -7 0 -5 8 5 15 18 33 24 22 8 -3 -5 -1 -13 5
-16 6 -4 9 -3 8 2 -2 4 8 20 21 35 20 23 27 26 40 15 12 -10 14 -9 8 7 -5 13
-3 17 7 13 15 -6 32 26 28 50 -2 6 2 14 7 17 5 3 7 20 4 37 -3 24 -1 29 9 23
7 -4 10 -3 5 1 -13 15 -49 16 -65 3 -12 -10 -14 -10 -8 0 4 6 3 12 -3 12 -5 0
-12 -6 -14 -12 -4 -10 -6 -9 -6 1 -1 11 -4 11 -16 1 -10 -9 -15 -9 -15 -1 0 6
-5 11 -11 11 -5 0 -7 -6 -3 -12 6 -10 4 -10 -8 0 -13 10 -17 10 -21 0 -4 -11
-6 -10 -6 0 -1 7 -5 10 -11 7 -18 -11 -50 -14 -55 -4 -9 13 -53 11 -58 -3 -3
-8 -6 -6 -6 5 -1 14 -5 16 -18 9 -23 -12 -45 -4 -36 11 4 7 -1 6 -10 -2 -13
-10 -17 -10 -17 -1 0 10 -3 10 -14 1 -8 -7 -16 -8 -18 -3 -1 5 -16 3 -33 -4z"/>
<path d="M4105 3610 c-4 -6 -11 -7 -17 -4 -7 4 -8 2 -4 -4 9 -16 -7 -15 -22 0
-9 9 -12 9 -12 -1 0 -7 -4 -9 -10 -6 -5 3 -10 1 -10 -4 0 -10 14 -15 33 -12 4
0 7 -6 7 -14 0 -8 9 -15 20 -15 11 0 20 -5 20 -11 0 -5 5 -7 10 -4 6 3 13 0
16 -9 3 -8 12 -12 20 -9 8 3 14 -1 14 -11 0 -9 7 -16 16 -16 8 0 12 -4 9 -10
-3 -5 -1 -10 4 -10 6 0 11 6 11 13 1 6 7 1 15 -13 8 -14 14 -20 15 -14 0 6 7
11 15 11 9 0 14 -6 11 -13 -3 -9 1 -11 11 -7 12 5 14 3 8 -8 -8 -12 -6 -12 8
0 15 12 17 11 17 -4 0 -14 3 -15 14 -6 11 9 16 9 23 -1 4 -7 17 -20 28 -28 19
-14 19 -14 6 3 -8 9 -11 20 -7 24 3 3 6 1 6 -5 0 -7 7 -12 16 -12 9 0 12 -5 8
-11 -5 -8 1 -10 20 -7 15 3 24 3 21 0 -2 -3 0 -11 6 -19 10 -11 14 -10 26 4 8
10 12 14 10 8 -3 -5 1 -16 9 -23 8 -7 14 -8 14 -2 0 5 5 10 11 10 5 0 8 -4 5
-9 -3 -5 1 -11 8 -14 9 -4 17 1 19 11 4 16 5 15 6 0 0 -10 6 -18 12 -18 5 0 7
6 4 13 -4 6 1 3 9 -7 9 -11 16 -14 16 -7 0 7 5 9 10 6 6 -4 7 -11 4 -17 -4 -6
2 -6 15 1 16 9 21 9 21 -1 0 -9 3 -9 11 -1 14 14 41 5 32 -11 -4 -6 1 -5 10 3
12 9 17 10 17 2 0 -7 5 -9 10 -6 6 4 7 11 4 17 -4 7 -2 8 5 4 6 -4 8 -12 5
-18 -4 -6 5 -9 22 -8 16 1 52 2 79 1 39 -1 47 -4 35 -12 -12 -9 -12 -10 3 -5
10 3 20 6 23 6 2 0 1 7 -3 16 -5 14 -3 15 18 4 17 -9 14 -3 -11 19 -19 17 -43
29 -52 27 -10 -2 -21 1 -25 6 -4 7 -1 8 7 3 9 -5 11 -4 6 4 -6 9 -11 9 -22 0
-10 -8 -14 -8 -14 0 0 6 -5 11 -11 11 -5 0 -7 -4 -4 -10 8 -14 -25 -1 -50 19
-18 15 -19 15 -6 -2 13 -16 12 -17 -10 -9 -13 5 -34 8 -47 7 -14 -1 -21 3 -18
11 3 8 -2 10 -16 6 -16 -4 -19 -2 -13 9 8 12 6 12 -8 0 -11 -9 -17 -10 -17 -2
0 6 -5 11 -11 11 -5 0 -8 -4 -5 -8 3 -5 -1 -9 -9 -9 -8 0 -13 5 -12 11 1 6 -6
10 -15 8 -10 -2 -27 2 -39 8 -11 7 -33 14 -47 16 -49 9 -62 15 -55 27 5 9 3 9
-8 1 -11 -9 -17 -9 -26 1 -6 7 -9 17 -5 21 4 5 -2 2 -12 -6 -17 -13 -18 -13
-11 -1 6 11 4 13 -8 8 -12 -4 -17 -1 -18 11 0 10 -3 12 -6 5 -3 -8 -13 -3 -30
15 -17 17 -24 21 -20 10 4 -10 2 -18 -3 -18 -9 0 -14 14 -11 33 0 4 -2 6 -6 6
-27 -4 -66 2 -55 9 9 6 6 11 -10 19 -36 18 -76 24 -83 13z m72 -16 c-3 -3 -12
-4 -19 -1 -8 3 -5 6 6 6 11 1 17 -2 13 -5z"/>
<path d="M5115 3530 c4 -6 11 -8 16 -5 14 9 11 15 -7 15 -8 0 -12 -5 -9 -10z"/>
<path d="M6980 2943 c0 -5 -11 -13 -25 -19 -13 -7 -24 -9 -23 -5 2 17 -4 19
-30 11 -16 -4 -36 -4 -45 2 -12 6 -15 5 -11 -5 3 -8 -2 -14 -10 -14 -8 0 -13
4 -10 9 3 4 -2 5 -10 2 -9 -3 -16 -11 -16 -18 0 -6 -5 -4 -10 4 -7 11 -10 11
-10 2 0 -10 -5 -10 -21 -2 -19 11 -20 10 -10 -9 10 -17 9 -20 -5 -14 -11 4
-15 2 -11 -4 5 -7 0 -9 -13 -6 -12 3 -20 0 -20 -6 0 -7 6 -9 13 -5 6 4 10 5 7
1 -3 -3 -8 -6 -13 -6 -11 -1 -67 -31 -67 -36 0 -2 8 -2 18 1 11 4 9 0 -7 -14
-15 -12 -21 -24 -16 -32 5 -8 4 -11 -2 -7 -25 15 -52 -58 -28 -75 6 -5 5 -8
-3 -8 -7 0 -10 -4 -7 -10 3 -5 2 -10 -3 -10 -6 0 -13 -7 -16 -16 -3 -8 -2 -13
2 -10 5 3 9 -1 9 -9 0 -8 -4 -12 -9 -9 -5 4 -9 0 -7 -7 4 -31 -1 -50 -12 -43
-8 5 -8 1 0 -14 8 -15 8 -21 -2 -25 -9 -3 -9 -8 2 -21 12 -14 12 -16 -2 -11
-8 4 -18 1 -23 -6 -4 -8 -3 -10 4 -5 8 5 11 0 8 -16 -2 -13 -9 -22 -15 -20 -9
2 -9 -3 -1 -18 8 -15 8 -20 -1 -20 -7 0 -9 -3 -6 -7 4 -3 1 -13 -6 -21 -9 -13
-9 -14 1 -8 6 4 12 2 12 -3 0 -6 -5 -11 -11 -11 -5 0 -7 -4 -4 -10 3 -5 1 -10
-5 -10 -6 0 -8 -5 -3 -12 11 -19 13 -39 2 -32 -5 3 -6 10 -3 16 4 6 2 8 -3 5
-6 -4 -9 -20 -7 -36 3 -25 0 -29 -14 -25 -10 4 -13 3 -6 -3 17 -13 25 -43 10
-37 -9 3 -13 -3 -12 -18 1 -13 -6 -26 -14 -30 -12 -5 -12 -7 3 -7 9 -1 17 -6
17 -12 0 -5 -4 -8 -9 -5 -5 3 -12 -1 -15 -10 -4 -10 -2 -13 7 -8 9 5 9 4 0 -7
-7 -7 -13 -22 -13 -34 0 -12 -6 -27 -12 -34 -7 -8 -8 -11 -3 -8 6 3 11 -3 11
-13 0 -14 -3 -16 -13 -8 -10 8 -12 7 -7 -5 3 -9 2 -22 -2 -29 -12 -19 -14 -39
-3 -32 5 3 9 1 9 -4 0 -6 -7 -12 -15 -16 -8 -3 -15 -10 -15 -16 0 -6 5 -8 10
-5 6 3 10 1 10 -4 0 -6 -8 -11 -17 -11 -14 0 -15 -2 -4 -9 9 -6 10 -10 2 -16
-9 -5 -9 -10 0 -21 10 -12 9 -13 -7 -7 -17 6 -17 5 -5 -10 11 -14 11 -18 -3
-23 -15 -6 -15 -8 1 -20 16 -13 16 -13 1 -8 -13 4 -16 1 -13 -15 2 -12 -1 -21
-6 -21 -6 0 -7 -4 -4 -10 3 -5 0 -10 -7 -10 -10 0 -9 -3 2 -11 11 -7 12 -12 3
-15 -7 -3 -9 -12 -6 -20 3 -8 1 -14 -5 -14 -5 0 -13 -7 -16 -16 -6 -15 -4 -15
11 -3 16 13 16 12 -1 -15 -11 -18 -13 -25 -5 -20 12 6 12 5 0 -9 -7 -9 -10
-17 -5 -17 5 0 0 -7 -10 -15 -12 -9 -15 -15 -7 -15 11 0 11 -3 0 -17 -9 -11
-10 -14 -2 -9 9 5 11 2 7 -8 -3 -9 -10 -13 -15 -10 -5 3 -6 -2 -3 -10 3 -8 0
-24 -6 -36 -7 -13 -8 -20 -3 -17 5 3 9 -4 8 -15 -1 -12 -7 -24 -13 -26 -6 -2
-8 -10 -5 -18 3 -8 0 -14 -6 -14 -6 0 -8 -7 -4 -17 4 -10 2 -14 -4 -10 -13 8
-11 -19 2 -30 4 -4 5 -2 1 5 -4 6 -2 12 3 12 6 0 11 -7 11 -16 0 -14 2 -13 17
1 16 16 17 16 29 1 8 -12 13 -13 16 -5 3 9 9 9 27 -1 15 -7 21 -8 17 -1 -4 6
-4 11 -1 11 4 0 16 -5 27 -11 15 -8 19 -8 14 0 -9 14 0 14 25 1 14 -8 19 -7
19 2 0 9 3 9 10 -2 5 -8 10 -10 10 -4 0 6 7 11 15 11 8 0 15 -5 15 -11 0 -6 7
-2 15 8 8 11 15 15 15 8 0 -7 16 -11 44 -9 27 1 42 6 38 12 -4 5 -7 15 -8 20
-1 15 17 47 23 41 3 -3 0 -14 -8 -23 -12 -17 -12 -17 6 -1 15 14 16 21 8 29
-8 8 -9 18 -2 31 7 13 6 18 -3 18 -8 0 -6 5 5 11 10 6 14 15 10 22 -12 20 -11
48 2 37 9 -7 12 -4 11 13 -1 12 -5 28 -9 34 -6 9 -3 11 9 6 14 -5 15 -3 5 15
-10 18 -9 20 10 17 18 -4 19 -2 7 12 -11 13 -11 17 0 21 10 3 8 8 -5 19 -10 8
-12 12 -5 8 21 -11 35 5 20 23 -11 13 -10 15 10 10 12 -4 22 -2 22 4 0 6 8 4
17 -3 15 -12 16 -12 10 3 -5 15 -4 16 13 6 14 -9 22 -9 33 1 12 9 17 9 23 0 5
-8 3 -9 -6 -4 -9 5 -11 4 -6 -4 5 -7 12 -9 19 -3 18 14 49 23 43 13 -11 -18
27 -21 41 -4 8 10 12 13 9 7 -3 -7 3 -14 13 -17 15 -3 18 -1 14 11 -5 11 -3
13 8 6 24 -14 51 -16 43 -2 -4 7 1 5 12 -4 13 -11 24 -14 34 -8 9 5 19 5 26
-1 8 -7 14 -6 19 1 4 7 12 7 26 0 11 -6 24 -8 30 -4 7 4 9 -1 4 -15 -3 -11 -2
-21 3 -21 6 0 13 -7 16 -16 3 -8 2 -13 -3 -10 -5 3 -8 -10 -7 -30 2 -27 9 -40
27 -50 21 -12 22 -13 5 -14 -16 0 -17 -3 -8 -12 16 -16 15 -31 0 -23 -7 4 -4
-1 6 -9 11 -9 16 -16 12 -16 -5 0 -2 -8 5 -17 8 -9 9 -14 3 -10 -7 4 -15 0
-18 -9 -3 -8 -2 -13 3 -10 12 8 18 -12 16 -46 -1 -16 2 -28 7 -28 5 0 7 -4 4
-8 -3 -5 9 -17 26 -27 17 -10 28 -13 24 -6 -4 6 -2 11 3 11 6 0 11 -4 11 -10
0 -5 7 -7 15 -4 8 4 12 10 9 15 -3 5 0 9 5 9 6 0 11 -8 12 -17 0 -11 3 -13 6
-6 3 10 10 10 25 2 15 -8 19 -8 14 0 -9 14 0 14 25 1 14 -8 19 -7 19 2 0 9 3
9 10 -2 5 -8 10 -10 10 -4 0 6 7 11 15 11 8 0 15 -5 15 -11 0 -6 7 -2 15 8 15
20 15 20 15 0 0 -16 2 -17 10 -4 9 13 11 13 20 0 9 -13 10 -13 10 0 0 13 1 13
10 0 6 -10 10 -11 10 -2 0 6 5 12 11 12 5 0 7 -5 3 -12 -4 -7 -3 -8 5 -4 6 4
9 12 6 17 -4 5 -1 9 6 9 7 0 4 7 -7 15 -13 10 -14 13 -3 10 11 -4 15 0 14 16
-1 13 -7 25 -13 27 -7 2 -12 8 -12 13 0 6 6 7 13 3 6 -4 4 1 -5 12 -11 12 -15
28 -11 42 3 14 1 22 -7 22 -7 0 -10 8 -7 20 3 11 1 20 -5 20 -6 0 -8 11 -6 25
3 13 1 22 -3 19 -13 -8 -11 10 4 25 10 11 10 13 0 7 -7 -4 -14 -4 -14 1 -1 4
-3 18 -4 29 -1 12 -5 26 -9 32 -3 6 -2 13 4 17 5 3 10 12 10 18 0 7 -4 6 -11
-3 -9 -12 -10 -11 -6 7 3 12 2 22 -2 21 -19 -2 -22 4 -10 19 12 14 12 16 0 8
-11 -6 -13 -3 -9 13 3 11 -1 31 -10 43 -8 12 -10 19 -4 15 7 -4 12 -2 12 3 0
6 -10 12 -22 12 -17 1 -19 2 -5 6 9 2 17 7 17 10 0 4 -8 15 -17 26 -10 11 -12
17 -5 13 18 -11 15 2 -8 26 -11 12 -18 24 -15 27 3 2 12 -4 21 -15 14 -18 14
-17 2 6 -7 14 -11 31 -9 39 1 8 -2 10 -10 5 -8 -4 -10 -3 -5 4 12 20 16 53 5
47 -5 -4 -6 -11 -3 -17 4 -7 2 -8 -5 -4 -6 4 -9 11 -6 16 3 5 1 11 -5 15 -5 3
-10 12 -10 18 0 7 4 6 10 -3 8 -13 10 -12 10 3 0 9 -5 17 -11 17 -8 0 -8 4 0
14 9 11 9 16 0 22 -8 5 -9 3 -4 -6 5 -8 4 -11 -3 -6 -6 3 -9 15 -7 26 2 11 -2
20 -8 20 -7 0 -6 4 3 10 8 5 10 10 4 10 -7 0 -15 7 -18 16 -3 8 -2 12 4 9 6
-3 10 -1 10 4 0 6 -5 11 -11 11 -5 0 -7 5 -4 10 3 6 0 10 -7 10 -9 0 -9 3 2
10 13 9 13 10 0 10 -13 0 -13 1 0 10 12 8 12 10 -5 10 -11 0 -15 4 -10 8 13 9
13 27 1 39 -5 5 -6 2 -1 -6 6 -10 4 -12 -4 -7 -9 6 -9 11 -1 21 8 9 8 19 1 32
-5 10 -15 32 -22 50 -7 17 -17 29 -23 26 -5 -3 -6 -1 -2 6 4 6 11 9 16 6 4 -3
6 4 3 15 -3 11 -8 18 -12 16 -4 -3 -8 9 -9 26 -1 17 -6 36 -9 42 -11 17 -12
37 -2 30 5 -3 9 0 9 5 0 6 -5 11 -11 11 -7 0 -9 10 -7 25 3 13 2 24 -1 23 -18
-2 -21 4 -10 24 10 18 9 20 -5 15 -14 -5 -15 -3 -6 13 7 13 7 21 -2 26 -7 5
-8 3 -3 -6 5 -9 4 -11 -4 -6 -9 6 -9 11 1 24 7 9 8 13 2 9 -6 -3 -16 5 -22 18
-9 19 -9 25 1 25 8 0 7 3 -3 9 -8 6 -18 7 -22 5 -4 -3 -8 0 -8 5 0 23 -2 26
-21 33 -11 4 -18 12 -15 17 3 5 -3 7 -14 4 -15 -4 -19 -2 -14 10 3 8 0 18 -7
23 -8 4 -10 3 -5 -4 12 -19 -16 -14 -30 6 -7 9 -14 12 -14 5 0 -14 -40 -5 -40
9 0 6 -6 6 -14 -1 -10 -8 -16 -9 -21 -1 -3 5 -13 10 -21 10 -8 0 -12 -4 -9
-10 3 -5 0 -7 -9 -4 -8 3 -12 12 -9 20 3 8 2 14 -1 14 -3 0 -6 -3 -6 -7z
m-360 -193 c0 -5 -5 -10 -11 -10 -5 0 -7 5 -4 10 3 6 8 10 11 10 2 0 4 -4 4
-10z m357 -136 c8 -7 11 -14 6 -14 -5 0 -9 -9 -9 -19 0 -14 4 -17 12 -10 8 7
15 6 20 -2 4 -8 3 -9 -4 -5 -13 8 -17 -6 -5 -18 9 -9 13 -37 4 -32 -4 3 -7 -6
-7 -19 0 -13 4 -21 8 -19 5 3 5 10 2 16 -4 7 -2 8 4 4 12 -7 5 -37 -11 -47 -5
-3 -1 -9 8 -12 10 -5 14 -3 9 5 -4 6 -3 8 2 5 6 -3 10 -26 9 -50 0 -25 3 -43
7 -41 5 3 8 2 9 -3 0 -4 2 -18 5 -31 3 -17 1 -21 -8 -16 -9 6 -9 3 0 -9 8 -9
11 -21 7 -27 -3 -5 1 -13 9 -16 9 -3 16 -10 16 -16 0 -5 -4 -7 -9 -4 -5 4 -8
-1 -7 -10 1 -8 9 -20 17 -25 8 -5 9 -9 2 -9 -15 0 -4 -40 11 -40 6 0 4 -5 -4
-10 -11 -7 -11 -10 -2 -10 7 0 10 -4 7 -10 -3 -5 -1 -10 4 -10 6 0 11 -5 11
-11 0 -5 -6 -7 -12 -3 -8 5 -7 1 2 -10 16 -21 23 -49 9 -40 -5 3 -7 10 -4 15
4 5 4 9 1 9 -14 0 -14 -20 0 -35 16 -15 16 -18 -1 -33 -10 -9 -15 -11 -11 -4
4 6 2 12 -3 12 -6 0 -11 -6 -12 -12 0 -10 -2 -10 -6 0 -2 6 -10 9 -16 5 -18
-11 -37 -12 -37 -2 0 5 -5 9 -11 9 -5 0 -8 -4 -5 -8 3 -5 -1 -9 -9 -9 -8 0
-12 4 -9 9 6 10 -10 11 -20 1 -12 -12 -36 -12 -36 0 0 7 -5 5 -10 -3 -5 -8
-10 -10 -10 -4 0 6 -7 11 -15 11 -8 0 -15 -5 -15 -11 0 -5 -7 -1 -15 10 -10
13 -13 14 -10 3 5 -12 0 -16 -17 -15 -40 3 -52 15 -33 36 11 13 13 20 5 25 -8
5 -6 13 7 28 13 16 13 18 2 9 -14 -11 -16 -9 -13 15 1 15 10 32 18 39 21 15
20 24 -1 25 -15 0 -15 2 2 9 11 5 16 9 12 9 -4 1 -3 11 4 22 8 15 8 19 0 15
-6 -4 -11 -2 -11 3 0 6 5 11 11 11 5 0 7 5 4 10 -4 6 -1 18 6 26 10 13 10 17
0 23 -9 6 -6 10 11 15 22 6 22 7 5 20 -11 8 -13 16 -7 18 6 2 12 13 13 26 0
12 5 22 9 22 4 0 8 5 8 11 0 5 -4 7 -10 4 -5 -3 -10 -1 -10 4 0 6 5 11 12 11
6 0 8 3 5 7 -4 3 -1 13 6 21 10 13 9 14 -2 7 -10 -6 -12 -4 -7 4 5 7 14 10 22
7 10 -4 10 1 -3 21 -10 15 -13 24 -6 20 16 -10 22 12 12 46 -7 26 -6 27 8 15
14 -11 16 -11 9 1 -5 8 -3 17 5 22 11 7 11 9 1 9 -22 0 -5 15 18 17 13 1 29
-5 37 -13z m403 -254 c0 -5 -2 -10 -4 -10 -3 0 -8 5 -11 10 -3 6 -1 10 4 10 6
0 11 -4 11 -10z m-580 -314 c0 -3 -4 -8 -10 -11 -5 -3 -10 -1 -10 4 0 6 5 11
10 11 6 0 10 -2 10 -4z"/>
<path d="M3062 2922 c-4 -11 -6 -11 -13 -1 -5 9 -11 10 -21 2 -7 -6 -21 -9
-30 -8 -11 2 -18 -3 -19 -13 0 -13 -2 -13 -9 3 -7 18 -9 18 -15 3 -3 -9 -13
-19 -21 -22 -9 -3 -12 -1 -9 4 3 6 2 10 -4 10 -5 0 -12 -9 -16 -19 -4 -13 -12
-18 -21 -14 -10 4 -17 -2 -21 -16 -3 -11 -10 -18 -16 -14 -7 4 -8 0 -3 -12 6
-16 4 -16 -11 -4 -13 11 -15 11 -9 1 5 -9 1 -19 -13 -28 -16 -12 -19 -19 -12
-33 7 -13 5 -22 -8 -33 -11 -9 -17 -26 -16 -42 2 -14 -1 -26 -7 -26 -7 0 -6
-5 1 -14 9 -11 9 -16 0 -22 -8 -5 -9 -3 -4 6 5 9 4 11 -4 6 -9 -6 -9 -11 1
-24 11 -13 11 -14 -1 -8 -11 7 -13 1 -9 -26 2 -23 0 -34 -7 -32 -6 3 -11 -5
-12 -16 -1 -13 2 -18 10 -13 7 4 7 1 -1 -10 -8 -9 -11 -21 -7 -27 3 -5 1 -10
-5 -10 -6 0 -9 -4 -6 -9 3 -5 -1 -12 -9 -15 -13 -4 -14 -10 -5 -26 7 -13 7
-20 1 -20 -6 0 -7 -7 -4 -17 5 -12 3 -14 -7 -8 -10 6 -11 4 -4 -6 14 -24 13
-38 -3 -32 -13 5 -14 3 -6 -12 13 -23 -3 -78 -20 -68 -7 3 -9 3 -5 -2 4 -4 2
-17 -4 -29 -10 -19 -9 -19 5 -8 13 11 15 10 10 -7 -3 -12 -9 -21 -13 -21 -5 0
-7 -8 -6 -17 2 -10 -4 -24 -11 -32 -12 -11 -12 -15 -1 -22 10 -7 10 -9 -2 -9
-13 0 -13 -1 0 -10 12 -8 12 -10 1 -10 -8 0 -11 -7 -8 -20 3 -10 0 -18 -5 -17
-6 1 -13 -4 -15 -10 -3 -7 0 -13 6 -13 6 0 11 -5 11 -11 0 -5 -4 -7 -10 -4 -5
3 -10 -3 -10 -14 0 -12 -6 -21 -12 -21 -9 0 -8 -4 2 -11 10 -7 11 -12 4 -15
-7 -3 -10 -15 -7 -27 4 -18 3 -19 -6 -7 -7 9 -11 10 -11 3 0 -6 5 -15 11 -18
6 -5 4 -12 -8 -21 -14 -11 -15 -13 -3 -14 13 0 13 -1 0 -10 -8 -5 -11 -10 -6
-10 5 0 3 -7 -5 -16 -7 -9 -9 -18 -3 -22 5 -4 10 -13 12 -21 2 -11 0 -12 -10
-4 -10 9 -13 4 -15 -24 -1 -19 -8 -42 -15 -51 -11 -14 -10 -15 7 -8 18 6 17 5
-3 -17 -15 -16 -20 -27 -13 -32 6 -3 11 -11 11 -17 0 -7 -4 -7 -13 0 -10 8
-13 6 -13 -8 0 -10 5 -16 11 -12 5 3 4 -1 -2 -10 -7 -8 -10 -18 -6 -21 3 -4 0
-7 -7 -7 -10 0 -11 -3 -3 -11 13 -13 6 -42 -8 -34 -4 3 -6 -4 -4 -15 2 -11 0
-20 -5 -20 -5 0 -6 -7 -3 -17 5 -12 3 -14 -7 -8 -10 6 -11 4 -4 -6 4 -8 9 -20
10 -27 2 -11 0 -11 -13 0 -15 12 -15 11 -4 -9 9 -17 9 -23 0 -23 -8 0 -8 -4 1
-15 12 -14 7 -20 -15 -15 -5 1 -5 -4 2 -11 6 -6 9 -17 7 -24 -4 -9 7 -13 39
-12 24 0 48 -3 54 -6 6 -4 14 -1 16 5 4 10 8 9 16 -2 10 -13 11 -13 11 0 0 12
2 13 9 1 7 -11 9 -11 13 0 4 11 10 11 32 1 15 -7 24 -8 21 -2 -8 13 1 13 26 0
14 -8 19 -7 19 2 0 9 3 9 10 -2 5 -8 10 -10 10 -4 0 6 7 11 15 11 8 0 15 -5
15 -11 0 -5 7 -1 16 10 8 10 13 14 10 7 -9 -18 7 -23 22 -7 10 11 10 14 0 14
-9 0 -9 3 2 10 8 5 11 12 7 16 -4 4 -1 14 5 22 7 7 13 27 14 44 2 16 8 35 14
43 13 16 4 39 -11 29 -6 -3 -5 3 2 14 7 12 17 18 22 15 5 -3 4 4 -2 15 -8 16
-7 21 5 26 14 5 14 9 3 23 -12 14 -12 16 0 8 11 -6 13 -4 8 8 -3 10 -2 17 2
17 5 0 7 10 4 21 -4 14 0 25 11 31 9 5 14 13 11 19 -9 13 9 11 24 -3 11 -11
13 -10 8 3 -3 9 0 16 9 16 7 0 11 -3 9 -7 -2 -4 24 -6 58 -6 34 1 68 -3 76 -9
12 -8 13 -6 7 9 -6 19 -6 19 11 4 13 -12 23 -14 35 -7 11 6 19 6 23 -2 5 -7
14 -4 28 8 11 10 17 13 14 7 -12 -20 24 -26 40 -7 8 10 12 12 8 6 -4 -9 1 -13
15 -13 14 0 19 4 15 13 -4 6 1 3 9 -7 9 -11 16 -15 16 -9 0 6 7 14 16 17 14 5
15 4 5 -8 -10 -12 -8 -14 11 -9 18 4 20 3 8 -6 -11 -8 -12 -11 -2 -11 7 0 10
-4 7 -10 -3 -5 1 -10 9 -10 19 0 21 -11 4 -28 -8 -8 -8 -15 3 -28 12 -15 12
-16 0 -10 -9 6 -12 5 -9 -5 3 -8 10 -13 16 -12 7 2 8 -7 3 -25 -9 -31 -4 -55
10 -47 5 4 6 -2 2 -11 -4 -11 -2 -15 4 -11 6 4 9 -7 8 -28 -2 -22 2 -36 12
-39 11 -5 12 -10 5 -19 -7 -8 -7 -18 -2 -27 16 -25 11 -35 -6 -14 -15 18 -15
18 -5 -3 11 -23 44 -38 60 -29 5 4 12 0 14 -6 4 -10 6 -10 6 0 1 10 6 10 22 1
15 -8 19 -8 15 0 -4 6 -2 11 3 11 6 0 11 -4 11 -10 0 -5 7 -7 15 -4 8 4 12 10
9 15 -3 5 0 9 5 9 6 0 11 -8 12 -17 0 -11 3 -13 6 -6 3 10 10 10 25 2 15 -8
19 -8 14 0 -9 14 0 14 25 1 14 -8 19 -7 19 2 0 9 3 9 10 -2 6 -10 10 -11 10
-3 0 15 21 13 32 -2 4 -5 10 -2 14 8 6 17 25 25 23 10 -4 -22 3 -25 17 -7 8
10 12 12 8 4 -4 -8 -3 -12 1 -7 12 11 14 47 2 40 -6 -4 -8 3 -5 15 4 15 2 22
-9 22 -8 0 -11 5 -8 10 4 6 12 8 18 4 7 -3 4 1 -6 9 -12 10 -15 17 -7 22 8 5
5 11 -7 21 -14 10 -14 13 -4 14 11 0 9 4 -5 15 -19 15 -19 15 1 8 17 -6 18 -4
8 9 -7 8 -10 18 -6 21 3 4 0 7 -9 7 -8 0 -15 7 -15 15 0 12 3 12 16 3 14 -11
14 -10 0 7 -9 11 -15 30 -14 43 1 12 -2 22 -6 22 -5 0 -6 7 -3 15 5 11 2 13
-11 9 -14 -6 -16 -4 -7 12 14 26 15 36 5 43 -20 15 -31 48 -21 66 8 13 7 16
-1 11 -7 -5 -10 3 -7 24 3 25 0 30 -12 25 -12 -4 -12 -3 -3 9 9 11 9 16 0 22
-8 5 -10 3 -4 -7 5 -8 4 -11 0 -6 -12 11 -14 47 -2 47 5 0 4 7 -4 16 -7 8 -14
32 -16 52 -2 20 -9 40 -16 44 -9 6 -8 8 3 8 12 0 12 2 2 9 -7 4 -14 18 -15 29
-1 12 -5 22 -10 22 -4 0 -5 5 -2 10 4 6 12 8 18 4 7 -3 4 1 -5 9 -19 15 -25
32 -8 22 19 -12 10 7 -12 26 -22 17 -22 18 -4 19 20 0 20 0 0 15 -14 10 -15
14 -5 15 11 0 10 4 -5 16 -10 8 -13 13 -6 9 6 -3 12 -1 12 4 0 6 -8 11 -17 11
-13 0 -14 3 -6 11 8 8 9 19 2 37 -5 14 -7 32 -4 40 4 10 0 12 -11 8 -14 -5
-15 -4 -4 9 10 12 10 15 0 15 -7 0 -10 7 -6 15 7 20 -3 46 -16 39 -6 -4 -5 4
2 16 9 17 9 21 0 15 -8 -5 -11 -1 -8 11 3 11 -2 33 -10 49 -15 29 -14 29 4 15
11 -9 9 -4 -5 13 -16 18 -20 27 -11 27 9 0 7 5 -6 16 -10 8 -13 13 -6 9 9 -5
12 2 10 24 -1 16 -6 27 -12 24 -5 -4 -7 1 -3 10 3 9 3 16 -1 16 -19 -3 -25 2
-12 11 13 9 13 10 0 10 -13 0 -13 1 0 10 10 6 11 10 3 10 -7 0 -13 9 -13 20 0
11 -4 20 -10 20 -5 0 -10 9 -10 20 0 11 -5 20 -11 20 -5 0 -7 5 -4 10 3 6 -1
13 -9 16 -9 3 -16 12 -16 20 0 8 -10 14 -22 14 -16 0 -19 3 -10 8 8 6 1 14
-24 25 -19 10 -40 14 -46 11 -7 -5 -9 -1 -5 9 4 12 2 14 -11 10 -9 -4 -21 -11
-25 -17 -6 -7 -7 -4 -3 6 3 10 1 20 -4 23 -6 4 -10 1 -10 -5 0 -6 -5 -8 -10
-5 -6 4 -8 12 -4 18 3 7 -2 3 -10 -7 -14 -17 -16 -18 -16 -3 0 9 -5 17 -11 17
-6 0 -8 -7 -5 -17 6 -16 6 -16 -12 0 -24 22 -33 22 -26 0 5 -14 4 -15 -4 -5
-13 19 -83 21 -90 4z m-237 -142 c-3 -5 -11 -10 -16 -10 -6 0 -7 5 -4 10 3 6
11 10 16 10 6 0 7 -4 4 -10z m341 -162 c4 4 2 -1 -5 -10 -11 -15 -11 -18 1
-18 10 0 14 -8 13 -25 -2 -14 0 -25 5 -25 5 0 7 -8 5 -17 -2 -10 -4 -18 -5
-18 -1 0 -3 -8 -5 -18 -2 -9 0 -15 5 -12 4 3 14 -3 21 -12 8 -9 9 -14 3 -10
-7 4 -14 0 -17 -8 -4 -9 -1 -12 7 -9 9 3 13 -7 14 -36 2 -48 9 -63 24 -54 7 5
7 1 0 -12 -8 -14 -6 -21 6 -31 15 -12 15 -12 -3 -6 l-20 6 20 -23 c11 -13 14
-20 8 -16 -7 4 -13 2 -13 -3 0 -6 5 -11 12 -11 6 0 8 -3 5 -6 -3 -4 -2 -15 3
-25 7 -12 6 -19 -3 -22 -6 -3 -3 -6 8 -6 15 -1 16 -4 7 -13 -14 -14 -16 -32
-3 -24 5 3 11 -3 14 -14 3 -11 1 -18 -4 -14 -5 3 -9 0 -9 -5 0 -6 7 -11 15
-11 13 0 14 -4 5 -20 -8 -15 -8 -20 1 -20 9 0 9 -3 0 -14 -9 -11 -9 -16 0 -22
8 -5 10 -3 4 7 -5 8 -4 10 0 6 14 -12 14 -36 2 -44 -18 -11 -57 -13 -57 -2 0
5 -5 9 -11 9 -5 0 -8 -3 -5 -8 6 -10 -85 -9 -101 1 -7 5 -18 5 -25 1 -7 -4
-24 -9 -37 -10 -20 -2 -22 -1 -11 6 9 6 10 10 3 10 -6 0 -15 -5 -18 -10 -9
-14 -27 -2 -19 13 3 7 -1 4 -9 -6 -13 -16 -15 -16 -21 -1 -10 26 -7 64 5 64 7
0 9 11 6 30 -5 24 -3 30 11 31 11 0 12 2 4 6 -10 4 -10 8 0 21 7 9 8 13 2 9
-6 -3 -11 1 -11 9 0 8 6 13 13 10 10 -4 11 1 3 21 -8 22 -7 24 8 19 14 -6 14
-4 -3 15 -10 12 -13 19 -6 15 6 -4 12 -2 12 4 0 6 5 8 13 4 7 -5 6 0 -3 11
-14 17 -13 18 4 11 18 -6 19 -5 4 11 -18 21 -13 43 10 43 15 0 15 2 2 11 -11
8 -12 12 -2 16 6 2 12 9 12 14 0 6 -4 7 -10 4 -5 -3 -10 -1 -10 4 0 6 4 11 9
11 5 0 8 13 7 29 -1 17 2 27 7 24 5 -3 6 4 2 17 -6 19 -4 22 10 16 15 -5 16
-4 5 9 -10 12 -10 15 0 15 10 0 9 4 -1 16 -11 13 -10 17 5 26 12 7 14 13 7 22
-12 15 15 60 30 51 5 -4 9 0 9 7 1 9 5 7 14 -4 7 -10 17 -14 22 -10z"/>
<path d="M3266 2008 c3 -5 10 -6 15 -3 13 9 11 12 -6 12 -8 0 -12 -4 -9 -9z"/>
<path d="M4421 2923 c-7 -12 -10 -14 -11 -4 0 11 -3 11 -17 0 -14 -12 -15 -12
-9 -1 7 11 4 12 -13 2 -12 -6 -31 -8 -43 -4 -17 5 -20 3 -14 -11 5 -15 4 -16
-8 -6 -10 8 -16 9 -21 1 -3 -6 -11 -8 -16 -5 -5 4 -9 0 -9 -7 0 -9 -3 -9 -10
2 -6 9 -10 10 -10 3 0 -6 -14 -18 -30 -27 -17 -8 -28 -10 -25 -5 3 5 -1 6 -9
3 -9 -3 -15 -9 -14 -12 2 -20 -4 -25 -13 -12 -9 12 -10 10 -6 -8 5 -19 3 -21
-9 -11 -12 10 -17 10 -27 0 -9 -10 -8 -11 8 -5 18 7 18 6 7 -9 -8 -9 -19 -15
-24 -14 -6 1 -13 -5 -15 -13 -4 -12 -3 -12 5 -1 6 8 12 9 16 3 7 -12 -22 -24
-37 -15 -7 4 -6 -1 2 -10 12 -16 12 -17 -5 -11 -10 4 -16 3 -11 -1 4 -5 0 -19
-9 -33 -10 -15 -11 -21 -3 -17 8 6 10 4 5 -4 -5 -7 -14 -10 -22 -7 -8 3 -11 0
-7 -9 3 -8 9 -12 15 -9 5 3 4 -3 -3 -14 -7 -12 -17 -18 -21 -16 -4 3 -4 -6 2
-20 5 -14 6 -26 2 -26 -5 0 -7 -18 -6 -41 1 -33 -1 -39 -15 -35 -11 4 -10 2 3
-9 11 -8 14 -15 8 -15 -7 0 -12 -5 -12 -11 0 -5 4 -8 8 -5 4 2 8 -11 8 -30 0
-22 -4 -33 -12 -30 -7 3 -10 -3 -7 -15 3 -10 9 -17 12 -14 4 2 8 -3 8 -11 0
-9 -6 -13 -16 -9 -11 3 -10 0 3 -10 14 -11 16 -15 5 -15 -12 0 -12 -2 1 -10
12 -8 12 -10 -5 -11 -19 0 -19 -1 -1 -8 11 -4 15 -10 10 -14 -8 -5 -12 -82 -4
-82 1 0 3 -8 5 -18 2 -9 -1 -15 -6 -11 -5 3 -9 0 -9 -5 0 -6 6 -11 13 -11 8 0
7 -4 -3 -10 -13 -8 -13 -10 -1 -10 11 0 9 -4 -5 -15 -11 -9 -13 -13 -4 -10 11
4 16 -3 16 -25 1 -16 -2 -28 -6 -25 -5 3 -7 -3 -5 -12 2 -10 4 -18 5 -18 1 0
3 -8 5 -18 2 -12 -1 -17 -10 -13 -9 3 -12 0 -8 -9 3 -8 8 -13 12 -11 4 3 7
-11 7 -30 0 -22 -4 -33 -12 -30 -7 3 -10 -3 -7 -15 3 -10 9 -17 12 -14 4 2 8
-3 8 -11 0 -9 -6 -13 -16 -9 -11 3 -10 0 3 -10 14 -11 16 -15 5 -15 -12 0 -12
-2 1 -10 12 -8 12 -10 -5 -11 -19 0 -19 -1 -1 -8 11 -4 15 -10 10 -14 -8 -5
-12 -82 -4 -82 1 0 3 -8 5 -18 2 -9 -1 -15 -6 -11 -5 3 -9 0 -9 -5 0 -6 6 -11
13 -11 8 0 7 -4 -3 -10 -13 -8 -13 -10 -1 -10 11 0 9 -4 -5 -15 -11 -9 -13
-13 -4 -10 11 4 16 -3 16 -25 1 -16 -2 -28 -6 -25 -5 3 -7 -3 -5 -12 2 -10 4
-18 5 -18 1 0 3 -8 5 -18 2 -12 -1 -17 -10 -13 -9 3 -12 0 -8 -9 3 -8 8 -13
12 -11 4 3 7 -11 7 -30 0 -22 -4 -33 -12 -30 -7 3 -10 -3 -7 -15 3 -10 10 -19
17 -19 6 0 4 -5 -4 -10 -12 -8 -13 -11 -1 -19 11 -7 11 -9 0 -14 -10 -4 -10
-6 -1 -6 6 -1 12 -6 12 -12 0 -5 -6 -7 -12 -4 -7 4 -5 0 4 -8 10 -8 17 -16 15
-18 -1 -2 4 2 11 10 9 11 12 11 12 2 0 -7 10 -11 23 -10 12 2 28 0 35 -4 7 -5
12 -3 12 7 0 9 5 16 11 16 5 0 8 -4 4 -9 -3 -5 -1 -12 5 -16 5 -3 10 0 10 7 0
8 3 9 8 3 12 -17 44 -15 37 2 -4 13 -3 14 9 4 8 -7 23 -11 33 -9 10 1 24 -1
31 -5 8 -5 12 -3 12 7 0 9 5 16 11 16 5 0 8 -4 4 -9 -3 -5 -1 -12 5 -16 5 -3
10 0 10 7 0 9 3 9 10 -2 8 -12 10 -12 11 5 l0 20 9 -20 c6 -14 9 -16 10 -5 2
8 2 19 1 24 -1 5 4 4 11 -2 11 -8 14 -7 14 9 0 13 -5 18 -15 14 -12 -5 -12 -3
0 11 15 18 22 47 9 39 -4 -3 -11 2 -14 11 -3 8 -2 13 3 10 14 -9 21 20 8 33
-8 8 -7 11 3 11 9 0 8 5 -6 16 -10 8 -14 13 -8 10 15 -7 26 32 12 41 -7 4 -8
1 -3 -7 6 -9 4 -11 -4 -6 -9 6 -8 13 5 27 16 18 16 19 -1 19 -18 0 -18 1 1 16
18 15 18 15 0 10 -16 -6 -17 -4 -5 10 16 19 21 47 7 38 -12 -8 -6 29 7 38 6 5
5 8 -2 8 -7 0 -13 5 -13 11 0 5 6 7 13 4 6 -4 3 1 -7 9 -15 12 -16 16 -5 16
10 0 15 11 14 34 0 19 -3 32 -6 30 -4 -2 -10 3 -13 12 -3 8 -2 13 3 10 5 -3
12 1 15 10 5 12 2 15 -10 10 -15 -6 -15 -4 -3 10 15 18 22 47 9 39 -4 -3 -10
4 -13 15 -3 11 -1 18 3 15 5 -3 11 -1 15 5 3 5 2 10 -3 10 -5 0 -9 7 -9 15 0
8 4 15 9 15 5 0 7 4 3 9 -3 5 0 13 6 17 8 4 9 3 5 -4 -9 -15 9 -15 34 -2 13 7
21 7 26 -2 5 -7 3 -8 -6 -3 -8 5 -11 4 -6 -3 9 -15 38 -3 29 12 -3 6 -1 6 8
-1 17 -17 32 -17 23 0 -6 10 -4 10 7 0 7 -7 17 -13 22 -13 4 0 5 6 1 13 -6 10
-4 10 7 0 7 -7 23 -13 36 -13 13 0 23 6 23 13 0 9 2 9 8 -1 9 -13 38 -12 61 2
9 6 12 5 8 -1 -4 -6 4 -10 18 -10 14 0 25 5 25 11 0 6 5 4 10 -4 9 -13 11 -13
20 0 5 8 10 10 10 4 0 -16 80 -17 80 -1 0 9 2 9 8 -1 9 -13 38 -12 61 2 9 6
12 5 8 -1 -4 -7 5 -10 23 -9 31 1 39 11 18 19 -8 3 -6 6 4 6 12 1 15 6 11 18
-5 12 -3 14 8 8 12 -8 12 -6 0 8 -9 12 -10 17 -2 17 8 0 9 5 2 18 -7 13 -6 23
1 30 9 9 9 12 -1 12 -11 0 -11 3 -1 15 10 12 10 15 0 15 -10 0 -10 3 0 15 10
12 10 15 0 15 -10 0 -10 3 0 15 9 11 9 15 1 15 -7 0 -10 4 -6 9 3 5 1 12 -5
16 -6 4 -8 10 -5 15 11 18 -14 20 -31 3 -16 -16 -17 -16 -12 -1 7 17 -14 32
-27 20 -10 -11 -95 -8 -95 3 0 6 -3 6 -8 -1 -9 -14 -62 -13 -62 1 0 6 -3 7 -8
0 -10 -14 -112 -14 -112 -1 0 7 -3 7 -8 1 -4 -5 -14 -10 -22 -10 -8 0 -18 5
-22 10 -5 6 -8 5 -8 -2 0 -13 -26 -13 -46 0 -6 3 -14 3 -18 0 -11 -11 -70 -11
-85 1 -12 9 -13 8 -6 -4 8 -13 7 -13 -8 -1 -12 10 -14 17 -7 26 8 9 6 25 -4
54 -13 38 -12 40 2 29 13 -11 14 -10 4 9 -9 16 -9 23 1 26 9 4 9 6 0 6 -7 1
-13 6 -13 12 0 5 6 7 13 4 6 -4 3 1 -7 9 -19 15 -19 16 -1 16 18 0 18 1 -1 16
-10 8 -14 13 -7 10 6 -4 14 -2 18 4 3 5 0 10 -7 10 -9 0 -9 3 -2 8 6 4 10 19
10 34 -1 22 1 25 13 15 12 -10 13 -9 7 1 -5 8 -1 19 10 28 11 9 13 12 5 8 -9
-4 -12 -3 -7 4 4 6 14 8 22 5 9 -3 20 0 25 8 6 10 9 10 9 2 0 -7 5 -13 11 -13
5 0 8 3 6 8 -3 4 6 8 19 8 15 1 21 -2 17 -10 -4 -6 1 -5 10 3 12 9 17 10 17 2
0 -7 5 -9 10 -6 6 4 8 11 5 16 -3 5 1 6 9 3 9 -3 13 -11 9 -18 -4 -6 1 -5 10
3 12 9 17 10 17 2 0 -7 5 -9 10 -6 6 4 8 11 5 16 -3 5 1 6 9 3 9 -3 13 -11 9
-18 -4 -6 1 -5 10 3 9 7 17 11 17 8 0 -3 14 -2 31 3 28 8 29 7 17 -7 -11 -15
-11 -16 7 -9 37 15 77 17 69 3 -5 -9 -4 -9 6 0 7 6 19 9 28 6 11 -5 13 -2 7 8
-6 11 -5 11 5 2 7 -6 19 -9 28 -6 11 5 13 3 7 -8 -4 -8 -5 -11 0 -7 4 4 15 2
24 -5 14 -11 14 -10 2 6 -12 15 -11 17 2 17 9 0 19 -5 22 -10 4 -7 12 -7 24 0
10 5 21 6 25 2 4 -3 4 1 0 11 -4 13 -2 16 9 12 11 -5 14 1 11 24 -2 17 1 31 7
31 6 0 3 7 -5 16 -18 17 -21 28 -6 19 6 -3 10 -3 11 2 0 4 2 16 4 25 2 10 -2
21 -7 25 -7 4 -8 1 -3 -7 6 -9 4 -11 -5 -5 -10 6 -10 10 3 20 14 10 14 12 -1
23 -9 7 -11 10 -5 7 9 -4 12 3 9 27 -2 18 -9 34 -15 36 -6 2 -9 7 -7 11 7 10
-26 7 -43 -4 -10 -5 -12 -4 -7 3 5 8 -5 12 -33 12 -22 0 -43 5 -46 10 -4 6
-12 7 -18 3 -21 -13 -37 -12 -37 3 0 8 -4 14 -10 14 -5 0 -6 -8 -3 -17 6 -16
5 -16 -10 -4 -9 7 -17 10 -17 6 0 -4 -8 -1 -17 6 -10 8 -14 9 -10 2 4 -6 3
-14 -3 -18 -5 -3 -10 -1 -10 6 0 6 -8 9 -19 6 -10 -2 -26 0 -35 5 -10 6 -16 5
-16 -2 0 -5 -5 -10 -11 -10 -5 0 -8 3 -6 8 10 14 -78 7 -91 -8 -10 -11 -12
-11 -6 -1 5 11 2 13 -14 9 -13 -4 -22 -1 -22 5 0 6 -6 3 -13 -8 -11 -14 -16
-15 -22 -5 -6 9 -4 11 5 5 9 -5 11 -4 6 3 -10 16 -13 15 -25 -5z m396 -25 c-3
-8 -6 -5 -6 6 -1 11 2 17 5 13 3 -3 4 -12 1 -19z m-459 -583 c-3 -3 -9 2 -12
12 -6 14 -5 15 5 6 7 -7 10 -15 7 -18z"/>
<path d="M5661 2923 c-7 -12 -10 -13 -11 -4 0 9 -4 10 -12 4 -7 -6 -23 -9 -35
-8 -13 1 -23 -2 -23 -6 0 -4 -13 -4 -30 1 -28 8 -29 7 -19 -12 8 -16 8 -19 -1
-13 -7 4 -17 1 -22 -6 -6 -10 -7 -6 -2 11 6 23 6 23 -10 7 -10 -9 -22 -14 -28
-11 -7 5 -8 2 -3 -6 6 -10 2 -12 -18 -8 -23 5 -25 3 -16 -15 8 -14 8 -18 0
-13 -6 4 -11 1 -11 -6 0 -8 -3 -9 -8 -3 -12 17 -30 15 -28 -3 0 -9 -5 -16 -11
-14 -12 2 -17 -11 -14 -31 1 -5 -3 -6 -9 -2 -5 3 -10 1 -10 -5 0 -6 -5 -8 -12
-4 -9 5 -8 2 1 -9 12 -15 12 -17 -1 -12 -8 3 -21 -1 -28 -10 -8 -10 -9 -15 -1
-15 6 0 11 5 11 11 0 5 5 7 10 4 6 -4 4 -12 -5 -21 -8 -9 -20 -12 -27 -8 -9 6
-9 3 1 -9 9 -12 10 -17 2 -17 -7 0 -9 -4 -6 -10 3 -5 1 -10 -6 -10 -6 0 -9 -8
-6 -19 3 -13 -1 -21 -12 -24 -12 -4 -12 -5 3 -6 20 -1 20 -1 0 -16 -14 -10
-15 -14 -5 -15 11 0 10 -4 -4 -13 -14 -11 -15 -16 -5 -22 9 -6 11 -4 5 5 -5 8
-4 11 3 6 6 -4 9 -13 6 -21 -4 -8 -9 -13 -13 -11 -8 5 -6 -58 3 -72 4 -7 2
-12 -5 -12 -8 0 -8 -4 1 -15 9 -11 9 -15 1 -15 -12 0 -11 -37 2 -57 5 -8 3
-13 -3 -13 -6 0 -8 -5 -3 -12 12 -20 11 -58 -1 -58 -6 0 -2 -7 8 -15 17 -13
17 -15 4 -15 -9 0 -20 -5 -24 -12 -4 -6 -3 -8 3 -5 6 4 13 0 17 -8 3 -8 0 -15
-6 -15 -6 0 -5 -6 3 -17 8 -9 9 -14 4 -11 -6 4 -11 -2 -11 -13 0 -10 5 -19 11
-19 5 0 3 -5 -5 -10 -9 -6 -11 -10 -3 -10 7 0 10 -7 7 -15 -4 -8 -11 -12 -16
-9 -6 4 -2 -6 8 -22 19 -28 19 -28 -1 -21 -19 7 -19 6 -2 -7 17 -13 25 -32 9
-22 -10 6 -8 -36 2 -52 4 -7 2 -12 -5 -12 -8 0 -8 -4 1 -15 9 -11 9 -15 1 -15
-12 0 -11 -37 2 -57 5 -8 3 -13 -3 -13 -6 0 -8 -5 -3 -12 12 -20 11 -58 -1
-58 -6 0 -2 -7 8 -15 17 -13 17 -15 4 -15 -9 0 -20 -5 -24 -12 -4 -6 -3 -8 3
-5 6 4 13 0 17 -8 3 -8 0 -15 -6 -15 -6 0 -5 -6 3 -17 8 -9 9 -14 4 -11 -6 4
-11 -2 -11 -13 0 -10 5 -19 11 -19 5 0 3 -5 -5 -10 -9 -6 -11 -10 -3 -10 7 0
10 -7 7 -15 -4 -8 -11 -12 -16 -9 -6 4 -2 -6 8 -22 19 -28 19 -28 -1 -21 -19
7 -19 6 -2 -7 17 -13 25 -32 9 -22 -10 6 -8 -36 2 -52 4 -7 2 -12 -5 -12 -8 0
-8 -4 1 -15 9 -11 9 -15 1 -15 -12 0 -11 -37 2 -57 5 -8 3 -13 -4 -13 -10 0
-10 -3 -1 -12 7 -7 12 -17 12 -23 0 -5 -5 -3 -10 5 -6 10 -10 11 -10 3 0 -7
14 -20 31 -29 17 -8 28 -11 25 -5 -4 6 -2 11 3 11 6 0 11 -4 11 -10 0 -5 7 -7
15 -4 8 4 12 10 9 15 -3 5 0 9 5 9 6 0 11 -8 12 -17 0 -11 3 -13 6 -6 3 10 10
10 25 2 15 -8 19 -8 14 0 -9 14 0 14 25 1 14 -8 19 -7 19 2 0 9 3 9 10 -2 5
-8 10 -10 10 -4 0 6 7 11 15 11 8 0 15 -5 15 -11 0 -6 7 -2 15 8 15 20 15 20
16 0 0 -11 3 -14 6 -6 4 10 8 10 21 0 12 -10 14 -10 8 0 -4 6 -2 12 3 12 6 0
11 -6 11 -12 0 -9 4 -8 10 2 5 8 10 11 10 5 0 -5 5 -4 12 3 13 13 19 54 7 47
-4 -3 -9 2 -13 10 -3 8 0 17 6 21 7 4 8 3 4 -4 -5 -8 -1 -10 10 -5 15 6 15 7
-1 15 -15 9 -15 11 2 31 10 11 13 18 8 14 -6 -3 -17 -2 -25 4 -9 5 -10 9 -4 9
19 0 24 28 8 45 -10 9 -11 15 -4 15 7 0 9 7 6 16 -4 10 -2 13 7 8 6 -4 3 3 -7
15 -20 22 -20 22 0 15 10 -4 16 -4 12 1 -4 4 -3 13 2 20 7 8 5 12 -5 12 -8 0
-11 -5 -8 -10 3 -6 1 -7 -6 -3 -9 6 -9 11 -1 22 14 15 20 75 8 68 -4 -3 -8 -1
-8 5 0 5 7 14 16 19 15 8 15 10 -1 16 -17 6 -17 8 1 28 11 12 14 19 9 15 -6
-3 -17 -2 -25 4 -9 5 -10 9 -4 9 19 0 24 28 8 45 -10 9 -11 15 -4 15 7 0 9 7
6 16 -4 10 -2 13 7 8 6 -4 4 1 -5 12 -12 14 -14 24 -7 37 7 12 7 22 1 30 -7 8
-6 18 4 31 8 11 14 15 14 9 0 -6 11 -10 25 -10 16 0 22 4 18 11 -4 6 1 5 10
-3 14 -11 17 -11 17 0 0 9 3 10 8 4 10 -15 53 -16 71 -2 10 8 12 8 8 1 -4 -7
2 -11 18 -11 14 0 25 5 25 11 0 6 5 4 10 -4 9 -13 11 -13 20 0 5 8 10 10 10 4
0 -16 80 -17 80 -1 0 9 2 9 9 -1 7 -12 49 -11 70 2 5 4 13 1 17 -5 5 -8 3 -9
-6 -4 -8 5 -11 4 -6 -3 9 -15 38 -3 29 12 -3 6 -1 6 8 -1 7 -7 17 -13 22 -13
4 0 5 6 1 13 -6 10 -4 10 7 0 16 -16 33 -17 24 -2 -4 6 3 5 14 -3 18 -11 23
-11 31 2 6 10 10 11 10 3 0 -7 5 -13 11 -13 5 0 7 5 4 10 -6 9 8 14 28 11 5
-1 5 3 2 10 -10 15 -12 128 -3 132 4 1 1 15 -7 30 -8 15 -10 25 -6 22 5 -2 11
6 13 20 5 24 -6 31 -36 26 -5 -1 -4 4 2 12 10 12 6 14 -28 11 -28 -2 -38 1
-34 8 5 7 2 8 -7 2 -20 -12 -79 -12 -79 0 0 7 -3 8 -8 1 -4 -5 -14 -10 -22
-10 -8 0 -18 5 -22 10 -5 6 -8 6 -8 -1 0 -14 -60 -13 -60 1 0 7 -3 7 -8 0 -10
-14 -112 -14 -112 -1 0 8 -3 8 -8 1 -4 -6 -20 -11 -37 -11 -16 0 -33 5 -37 11
-5 6 -8 5 -8 -3 0 -9 -5 -10 -19 -3 -10 6 -22 7 -26 3 -10 -11 -29 -9 -42 5
-14 13 -18 27 -5 19 8 -5 7 41 -1 87 -3 15 -1 27 5 27 6 0 6 6 -2 15 -9 10 -9
15 -1 15 6 0 11 5 11 11 0 5 -4 8 -9 4 -5 -3 -12 -1 -16 5 -3 5 1 10 11 10 12
0 14 3 6 13 -8 9 -7 21 3 40 8 15 10 25 5 22 -5 -3 -12 0 -16 7 -4 7 -4 10 0
7 10 -9 54 34 47 46 -3 6 3 4 12 -4 15 -12 17 -12 11 2 -6 16 10 18 34 3 7 -4
19 -2 27 4 12 10 15 10 15 -1 0 -9 3 -10 8 -4 4 6 18 11 32 13 20 2 22 1 10
-7 -9 -7 -10 -11 -3 -11 6 0 15 5 18 10 4 6 11 8 16 4 5 -3 6 -10 3 -16 -5 -7
-2 -8 5 -4 7 5 10 15 7 23 -4 9 -2 11 7 6 22 -14 49 -14 41 -1 -6 10 -4 10 7
2 8 -6 28 -10 44 -7 23 3 26 1 15 -7 -9 -6 -10 -10 -3 -10 6 0 15 5 18 10 4 6
11 8 16 4 5 -3 6 -10 3 -16 -5 -7 -2 -8 5 -4 7 5 10 15 7 23 -4 9 -2 11 7 6
22 -14 49 -14 41 -1 -6 10 -4 10 7 2 8 -6 28 -10 44 -7 23 3 26 1 15 -7 -9 -6
-10 -10 -3 -10 6 0 14 4 18 10 3 5 13 6 22 3 12 -5 14 -3 8 7 -5 9 -4 11 3 6
28 -17 48 -14 48 7 -1 12 4 21 11 20 7 -2 10 4 7 12 -4 8 -11 12 -18 8 -6 -3
-3 3 7 14 12 14 15 23 8 28 -8 4 -8 13 1 28 11 21 10 21 -7 7 -13 -11 -16 -11
-11 -2 11 19 17 84 7 78 -10 -7 -8 25 4 43 5 9 4 12 -3 7 -6 -3 -18 1 -27 10
-16 17 -108 27 -99 12 3 -4 -2 -5 -10 -2 -9 3 -13 11 -9 17 4 6 1 7 -8 2 -20
-13 -49 -13 -49 -1 0 7 -3 7 -8 1 -10 -14 -32 -17 -32 -4 0 5 -4 7 -10 4 -5
-3 -10 -1 -10 6 0 7 -7 4 -16 -7 -10 -12 -14 -14 -11 -4 5 16 -35 18 -184 10
-30 -2 -60 0 -67 3 -6 4 -15 -1 -21 -10z m233 -1 c3 -5 -1 -9 -9 -9 -8 0 -12
4 -9 9 3 4 7 8 9 8 2 0 6 -4 9 -8z m280 -20 c3 -5 -1 -9 -9 -9 -8 0 -12 4 -9
9 3 4 7 8 9 8 2 0 6 -4 9 -8z"/>
<path d="M6226 2858 c3 -5 10 -6 15 -3 13 9 11 12 -6 12 -8 0 -12 -4 -9 -9z"/>
<path d="M5235 2321 c-3 -5 -2 -12 3 -15 5 -3 9 1 9 9 0 17 -3 19 -12 6z"/>
<path d="M5605 1980 c-3 -5 -1 -10 4 -10 6 0 11 5 11 10 0 6 -2 10 -4 10 -3 0
-8 -4 -11 -10z"/>
<path d="M5605 1920 c-3 -5 -1 -10 4 -10 6 0 11 5 11 10 0 6 -2 10 -4 10 -3 0
-8 -4 -11 -10z"/>
<path d="M5235 1841 c-3 -5 -2 -12 3 -15 5 -3 9 1 9 9 0 17 -3 19 -12 6z"/>
<path d="M6280 1440 c0 -5 5 -10 11 -10 5 0 7 5 4 10 -3 6 -8 10 -11 10 -2 0
-4 -4 -4 -10z"/>
<path d="M6315 1330 c-3 -5 -1 -10 4 -10 6 0 11 5 11 10 0 6 -2 10 -4 10 -3 0
-8 -4 -11 -10z"/>
</g>
</svg>
